<svg class="animated" id="freepik_stories-ninja" xmlns="http://www.w3.org/2000/svg" viewBox="0 0 500 500" version="1.1" xmlns:xlink="http://www.w3.org/1999/xlink" xmlns:svgjs="http://svgjs.com/svgjs"><style>svg#freepik_stories-ninja:not(.animated) .animable {opacity: 0;}svg#freepik_stories-ninja.animated #freepik--wood-2--inject-2 {animation: 6s Infinite  linear shake;animation-delay: 0s;}svg#freepik_stories-ninja.animated #freepik--wood-1--inject-2 {animation: 6s Infinite  linear shake;animation-delay: 0s;}            @keyframes shake {                10%, 90% {                    transform: translate3d(-1px, 0, 0);                  }                  20%, 80% {                    transform: translate3d(2px, 0, 0);                  }                  30%, 50%, 70% {                    transform: translate3d(-4px, 0, 0);                  }                  40%, 60% {                    transform: translate3d(4px, 0, 0);                  }            }        </style><g id="freepik--background-complete--inject-2" class="animable" style="transform-origin: 250px 223.205px;"><rect y="382.4" width="500" height="0.25" style="fill: rgb(235, 235, 235); transform-origin: 250px 382.525px;" id="elyyu2zm0u12" class="animable"></rect><rect x="416.78" y="398.49" width="33.12" height="0.25" style="fill: rgb(235, 235, 235); transform-origin: 433.34px 398.615px;" id="eloaxbifibze" class="animable"></rect><rect x="322.53" y="401.21" width="8.69" height="0.25" style="fill: rgb(235, 235, 235); transform-origin: 326.875px 401.335px;" id="el4lvejuqldj2" class="animable"></rect><rect x="396.59" y="389.21" width="19.19" height="0.25" style="fill: rgb(235, 235, 235); transform-origin: 406.185px 389.335px;" id="el7slp40eoitp" class="animable"></rect><rect x="52.46" y="390.89" width="43.19" height="0.25" style="fill: rgb(235, 235, 235); transform-origin: 74.055px 391.015px;" id="eldyad3l0wwbg" class="animable"></rect><rect x="104.56" y="390.89" width="6.33" height="0.25" style="fill: rgb(235, 235, 235); transform-origin: 107.725px 391.015px;" id="el2qlp6p3kfm" class="animable"></rect><rect x="131.47" y="395.11" width="93.68" height="0.25" style="fill: rgb(235, 235, 235); transform-origin: 178.31px 395.235px;" id="el2aqg7l6cpki" class="animable"></rect><path d="M237,337.8H43.91a5.71,5.71,0,0,1-5.7-5.71V60.66A5.71,5.71,0,0,1,43.91,55H237a5.71,5.71,0,0,1,5.71,5.71V332.09A5.71,5.71,0,0,1,237,337.8ZM43.91,55.2a5.46,5.46,0,0,0-5.45,5.46V332.09a5.46,5.46,0,0,0,5.45,5.46H237a5.47,5.47,0,0,0,5.46-5.46V60.66A5.47,5.47,0,0,0,237,55.2Z" style="fill: rgb(235, 235, 235); transform-origin: 140.46px 196.4px;" id="el54haw35kdfn" class="animable"></path><path d="M453.31,337.8H260.21a5.72,5.72,0,0,1-5.71-5.71V60.66A5.72,5.72,0,0,1,260.21,55h193.1A5.71,5.71,0,0,1,459,60.66V332.09A5.71,5.71,0,0,1,453.31,337.8ZM260.21,55.2a5.47,5.47,0,0,0-5.46,5.46V332.09a5.47,5.47,0,0,0,5.46,5.46h193.1a5.47,5.47,0,0,0,5.46-5.46V60.66a5.47,5.47,0,0,0-5.46-5.46Z" style="fill: rgb(235, 235, 235); transform-origin: 356.75px 196.4px;" id="elpkdqg6ahgji" class="animable"></path><rect x="166.2" y="265.01" width="164.96" height="38.86" style="fill: rgb(235, 235, 235); transform-origin: 248.68px 284.44px;" id="elo5mjei25gb" class="animable"></rect><path d="M139.8,262.09c9.15-.89,17.92-7,26.4-17.08h165c10.65,11.87,19.13,16.4,26.41,16.84-6.24,3.44-15.5,4.5-26.41,3.16h-165C155.3,266,145.84,265.58,139.8,262.09Z" style="fill: rgb(235, 235, 235); transform-origin: 248.705px 255.291px;" id="elop7gbg45ln" class="animable"></path><rect x="190.16" y="217.44" width="117.05" height="27.57" style="fill: rgb(235, 235, 235); transform-origin: 248.685px 231.225px;" id="el0iz3xxwmu6xd" class="animable"></rect><path d="M171.42,215.37c6.49-.63,12.72-5,18.74-12.12h117c7.55,8.42,13.57,11.64,18.74,11.94-4.43,2.44-11,3.2-18.74,2.25h-117C182.42,218.1,175.71,217.84,171.42,215.37Z" style="fill: rgb(235, 235, 235); transform-origin: 248.66px 210.543px;" id="elja7b5yddzwf" class="animable"></path><rect x="213.49" y="186.67" width="70.39" height="16.58" style="fill: rgb(235, 235, 235); transform-origin: 248.685px 194.96px;" id="el9n9wdrxsnwp" class="animable"></rect><path d="M202.22,185.42c3.91-.38,7.65-3,11.27-7.29h70.39c4.54,5.07,8.16,7,11.27,7.19-2.67,1.46-6.62,1.92-11.27,1.35H213.49C208.84,187.07,204.8,186.91,202.22,185.42Z" style="fill: rgb(235, 235, 235); transform-origin: 248.685px 182.519px;" id="elkmbwrdfayzp" class="animable"></path><rect x="233.16" y="170.82" width="31.05" height="7.31" style="fill: rgb(235, 235, 235); transform-origin: 248.685px 174.475px;" id="elvwsagckwlq" class="animable"></rect><path d="M228.19,170.27c1.72-.17,3.37-1.33,5-3.22h31c2,2.24,3.6,3.09,5,3.17a8.44,8.44,0,0,1-5,.6h-31C231.1,171,229.32,170.93,228.19,170.27Z" style="fill: rgb(230, 230, 230); transform-origin: 248.69px 169.006px;" id="elimle0mgeqc9" class="animable"></path><path d="M217.32,245.53c12.89-3.7,23.33-11.75,30.77-23.72,8.52,12,19.25,19.75,32,23.82V265H217.32Z" style="fill: rgb(235, 235, 235); transform-origin: 248.705px 243.405px;" id="elxnrzspebuuj" class="animable"></path><g id="elra35vnfi0hb"><path d="M248.68,244.89A64.14,64.14,0,0,1,217.32,265h62.73C266.19,260.36,255.94,253.53,248.68,244.89Z" style="fill: rgb(250, 250, 250); opacity: 0.4; transform-origin: 248.685px 254.945px;" class="animable"></path></g><g id="elap68huhxne4"><path d="M219.58,209.13A27.79,27.79,0,0,1,206,217.84h27.15C227.16,215.83,222.73,212.87,219.58,209.13Z" style="fill: rgb(250, 250, 250); opacity: 0.4; transform-origin: 219.575px 213.485px;" class="animable"></path></g><g id="eldjial8wks8u"><path d="M280.05,209.13a27.77,27.77,0,0,1-13.58,8.71h27.15C287.62,215.83,283.19,212.87,280.05,209.13Z" style="fill: rgb(250, 250, 250); opacity: 0.4; transform-origin: 280.045px 213.485px;" class="animable"></path></g><g id="elgnsnt538rei"><path d="M248.68,177.45a28.87,28.87,0,0,1-14.12,9.06h28.25C256.57,184.42,252,181.34,248.68,177.45Z" style="fill: rgb(250, 250, 250); opacity: 0.4; transform-origin: 248.685px 181.98px;" class="animable"></path></g><rect x="188.03" y="275.72" width="9.34" height="13.94" style="fill: rgb(255, 255, 255); transform-origin: 192.7px 282.69px;" id="eldmtkqnti3yh" class="animable"></rect><rect x="204.14" y="275.72" width="9.34" height="13.94" style="fill: rgb(255, 255, 255); transform-origin: 208.81px 282.69px;" id="elp591cxzmgy" class="animable"></rect><rect x="219.58" y="275.72" width="9.34" height="13.94" style="fill: rgb(255, 255, 255); transform-origin: 224.25px 282.69px;" id="elohc2rq2mcaf" class="animable"></rect><rect x="267.43" y="275.72" width="9.34" height="13.94" style="fill: rgb(255, 255, 255); transform-origin: 272.1px 282.69px;" id="elf7xo7yc1tmg" class="animable"></rect><rect x="283.54" y="275.72" width="9.34" height="13.94" style="fill: rgb(255, 255, 255); transform-origin: 288.21px 282.69px;" id="ele50ldgs289q" class="animable"></rect><rect x="298.98" y="275.72" width="9.34" height="13.94" style="fill: rgb(255, 255, 255); transform-origin: 303.65px 282.69px;" id="elq29gf9q9exq" class="animable"></rect><rect x="200.4" y="224.76" width="6.5" height="9.69" style="fill: rgb(255, 255, 255); transform-origin: 203.65px 229.605px;" id="elo0w0iy08lsc" class="animable"></rect><rect x="210.24" y="224.76" width="6.5" height="9.69" style="fill: rgb(255, 255, 255); transform-origin: 213.49px 229.605px;" id="eli541scmwnv" class="animable"></rect><rect x="219.58" y="224.76" width="6.5" height="9.69" style="fill: rgb(255, 255, 255); transform-origin: 222.83px 229.605px;" id="elr7669kz4a8d" class="animable"></rect><rect x="271.04" y="224.76" width="6.5" height="9.69" style="fill: rgb(255, 255, 255); transform-origin: 274.29px 229.605px;" id="elnp0pnxb271" class="animable"></rect><rect x="280.88" y="224.76" width="6.5" height="9.69" style="fill: rgb(255, 255, 255); transform-origin: 284.13px 229.605px;" id="ela9jweuc8po5" class="animable"></rect><rect x="290.22" y="224.76" width="6.5" height="9.69" style="fill: rgb(255, 255, 255); transform-origin: 293.47px 229.605px;" id="elydd73yv3ias" class="animable"></rect><rect x="221.92" y="190.11" width="4.67" height="6.97" style="fill: rgb(255, 255, 255); transform-origin: 224.255px 193.595px;" id="el3mnowyyg7el" class="animable"></rect><rect x="228.48" y="190.11" width="4.67" height="6.97" style="fill: rgb(255, 255, 255); transform-origin: 230.815px 193.595px;" id="el82ldc2dnwvg" class="animable"></rect><rect x="234.89" y="190.11" width="4.67" height="6.97" style="fill: rgb(255, 255, 255); transform-origin: 237.225px 193.595px;" id="elpf36iyhdf1a" class="animable"></rect><rect x="235.54" y="171.73" width="2.34" height="3.49" style="fill: rgb(255, 255, 255); transform-origin: 236.71px 173.475px;" id="el585v6ajs1rc" class="animable"></rect><polygon points="288.75 382.02 92.49 382.02 125.1 303.29 288.75 303.29 288.75 382.02" style="fill: rgb(235, 235, 235); transform-origin: 190.62px 342.655px;" id="el40tlsuq4qva" class="animable"></polygon><g id="ele85330kr4cg"><polygon points="364.55 382.02 168.28 382.02 200.9 303.29 364.55 303.29 364.55 382.02" style="fill: rgb(255, 255, 255); opacity: 0.4; transform-origin: 266.415px 342.655px;" class="animable"></polygon></g><g id="elvpjfxvg0zgd"><path d="M130.9,314.63l-2.52,2.16a2.87,2.87,0,0,0-.3,4.07h0a2.87,2.87,0,0,0,2.16,1h3.29a2.88,2.88,0,0,0,2.75-2l.65-2.17a2.87,2.87,0,0,0-2.75-3.69h-1.41A2.86,2.86,0,0,0,130.9,314.63Z" style="fill: rgb(255, 255, 255); opacity: 0.4; transform-origin: 132.211px 317.929px;" class="animable"></path></g><g id="elpivmsfuuzr"><path d="M118.4,334.35l-2.1,1a1.6,1.6,0,0,0-.57,2.47l1,1.17a1.59,1.59,0,0,0,1.25.6H120a1.61,1.61,0,0,0,1.48-2.25l-.92-2.13A1.6,1.6,0,0,0,118.4,334.35Z" style="fill: rgb(255, 255, 255); opacity: 0.4; transform-origin: 118.49px 336.896px;" class="animable"></path></g><g id="eleii677wb3a5"><path d="M145.11,362.07l-2.1,1a1.61,1.61,0,0,0-.57,2.48l.95,1.17a1.62,1.62,0,0,0,1.25.6h2.06a1.61,1.61,0,0,0,1.48-2.25l-.91-2.14A1.62,1.62,0,0,0,145.11,362.07Z" style="fill: rgb(255, 255, 255); opacity: 0.4; transform-origin: 145.195px 364.624px;" class="animable"></path></g><g id="el9fok1bpwuci"><path d="M154.62,317.82l-2.1,1a1.61,1.61,0,0,0-.57,2.48l1,1.17a1.59,1.59,0,0,0,1.25.6h2.06a1.61,1.61,0,0,0,1.48-2.25l-.92-2.14A1.61,1.61,0,0,0,154.62,317.82Z" style="fill: rgb(255, 255, 255); opacity: 0.4; transform-origin: 154.73px 320.365px;" class="animable"></path></g><g id="elh2tzlb06qjr"><path d="M140.35,347.61l-4.19,1.93a3.21,3.21,0,0,0-1.15,4.95l1.9,2.34A3.21,3.21,0,0,0,139.4,358h4.12a3.22,3.22,0,0,0,3-4.49l-1.83-4.27A3.21,3.21,0,0,0,140.35,347.61Z" style="fill: rgb(255, 255, 255); opacity: 0.4; transform-origin: 140.533px 352.647px;" class="animable"></path></g><g id="elxdw8t9ovq6"><path d="M130.45,358.12l-2.1,1a1.62,1.62,0,0,0-.58,2.48l1,1.17a1.59,1.59,0,0,0,1.25.6H132a1.62,1.62,0,0,0,1.48-2.25l-.92-2.14A1.61,1.61,0,0,0,130.45,358.12Z" style="fill: rgb(255, 255, 255); opacity: 0.4; transform-origin: 130.511px 360.682px;" class="animable"></path></g><g id="elatxx5qfj4kp"><path d="M127.37,330.76v.16a2.73,2.73,0,0,0,2.73,2.73h1.41a2.73,2.73,0,0,0,2.73-2.73v-2.07a2.72,2.72,0,0,0-1.3-2.32h0a2.72,2.72,0,0,0-3.62.7l-1.41,1.9A2.73,2.73,0,0,0,127.37,330.76Z" style="fill: rgb(255, 255, 255); opacity: 0.4; transform-origin: 130.805px 329.887px;" class="animable"></path></g><g id="ell5cdbigj0t"><path d="M151.27,353.19v.16a2.73,2.73,0,0,0,2.73,2.73h1.41a2.73,2.73,0,0,0,2.73-2.73v-2.07a2.71,2.71,0,0,0-1.3-2.32h0a2.71,2.71,0,0,0-3.62.7l-1.41,1.9A2.73,2.73,0,0,0,151.27,353.19Z" style="fill: rgb(255, 255, 255); opacity: 0.4; transform-origin: 154.705px 352.315px;" class="animable"></path></g><g id="elh9j4u452fhd"><path d="M127.07,344.09l1.67,2a2.27,2.27,0,0,0,2.89.48l.12-.07a2.26,2.26,0,0,0,.95-2.78l-.75-1.9a2.28,2.28,0,0,0-2.11-1.44h-1a2.27,2.27,0,0,0-2.27,2.27h0A2.3,2.3,0,0,0,127.07,344.09Z" style="fill: rgb(255, 255, 255); opacity: 0.4; transform-origin: 129.715px 343.635px;" class="animable"></path></g><g id="el40kyq764o1"><path d="M157.33,341.82l1.67,2a2.27,2.27,0,0,0,2.89.49l.12-.07a2.27,2.27,0,0,0,1-2.79l-.75-1.9a2.28,2.28,0,0,0-2.11-1.43h-1a2.27,2.27,0,0,0-2.27,2.26h0A2.28,2.28,0,0,0,157.33,341.82Z" style="fill: rgb(255, 255, 255); opacity: 0.4; transform-origin: 160.02px 341.373px;" class="animable"></path></g><g id="eluy2xgiwajz"><path d="M110.38,370l1.66,2a2.27,2.27,0,0,0,2.89.48l.13-.07a2.27,2.27,0,0,0,1-2.78l-.76-1.9a2.25,2.25,0,0,0-2.1-1.44h-1a2.27,2.27,0,0,0-2.26,2.27h0A2.3,2.3,0,0,0,110.38,370Z" style="fill: rgb(255, 255, 255); opacity: 0.4; transform-origin: 113.073px 369.545px;" class="animable"></path></g><g id="ele0cgsobl426"><path d="M111.92,343.41l1.37-1.21a1.39,1.39,0,0,1,.65-.33l2.36-.49a1.45,1.45,0,0,1,1.17.28l1.33,1.06a1.42,1.42,0,0,1,.54,1.11v.64a1.42,1.42,0,0,1-1.42,1.42h-5.06a1.43,1.43,0,0,1-1.32-.91h0A1.42,1.42,0,0,1,111.92,343.41Z" style="fill: rgb(255, 255, 255); opacity: 0.4; transform-origin: 115.393px 343.622px;" class="animable"></path></g><g id="elt2iw0u8pr4"><path d="M156.49,307.63l1.37-1.21a1.47,1.47,0,0,1,.65-.32l2.36-.49a1.38,1.38,0,0,1,1.17.28l1.33,1.06a1.39,1.39,0,0,1,.54,1.11v.64a1.42,1.42,0,0,1-1.42,1.41h-5.06a1.41,1.41,0,0,1-1.32-.91h0A1.41,1.41,0,0,1,156.49,307.63Z" style="fill: rgb(255, 255, 255); opacity: 0.4; transform-origin: 159.962px 307.844px;" class="animable"></path></g><g id="elepthltcn2o"><path d="M103.74,376.39l1.37-1.21a1.42,1.42,0,0,1,.65-.32l2.35-.49a1.41,1.41,0,0,1,1.17.27l1.34,1.06a1.41,1.41,0,0,1,.53,1.11v.64a1.41,1.41,0,0,1-1.41,1.42h-5.06a1.42,1.42,0,0,1-1.33-.91h0A1.41,1.41,0,0,1,103.74,376.39Z" style="fill: rgb(255, 255, 255); opacity: 0.4; transform-origin: 107.203px 376.604px;" class="animable"></path></g><g id="elv3n3wpkuwr"><path d="M122,325.07l-.49.79a.94.94,0,0,0-.12.73l.29,1.15a.94.94,0,0,0,.92.71h0a.94.94,0,0,0,.89-.63l.61-1.77a.94.94,0,0,0-.52-1.18l-.41-.17A.93.93,0,0,0,122,325.07Z" style="fill: rgb(255, 255, 255); opacity: 0.4; transform-origin: 122.758px 326.536px;" class="animable"></path></g><g id="ellx4ix95s5me"><path d="M146.93,305.82l-.49.8a.88.88,0,0,0-.11.72l.28,1.16a1,1,0,0,0,.92.71h0a.94.94,0,0,0,.89-.63l.61-1.77a.94.94,0,0,0-.51-1.18l-.42-.18A1,1,0,0,0,146.93,305.82Z" style="fill: rgb(255, 255, 255); opacity: 0.4; transform-origin: 147.691px 307.299px;" class="animable"></path></g><g id="elwn3a00p6s8l"><path d="M168.29,326.71l-1.55,2.51a3,3,0,0,0-.35,2.27l.91,3.61a3,3,0,0,0,2.87,2.25h0a3,3,0,0,0,2.8-2l1.93-5.57a3,3,0,0,0-1.63-3.69l-1.3-.56A3,3,0,0,0,168.29,326.71Z" style="fill: rgb(255, 255, 255); opacity: 0.4; transform-origin: 170.679px 331.328px;" class="animable"></path></g><g id="el50y5re1k4ib"><path d="M126.85,349.31l-1,1.63a1.92,1.92,0,0,0-.22,1.48l.59,2.36a1.93,1.93,0,0,0,1.87,1.47h0a1.94,1.94,0,0,0,1.83-1.3l1.26-3.63a1.93,1.93,0,0,0-1.06-2.41l-.85-.37A1.93,1.93,0,0,0,126.85,349.31Z" style="fill: rgb(255, 255, 255); opacity: 0.4; transform-origin: 128.429px 352.315px;" class="animable"></path></g><g id="elgy9ery70rdl"><path d="M136.2,332.74l-1.54,2.5a3,3,0,0,0-.35,2.27l.91,3.61a3,3,0,0,0,2.87,2.25h0a3,3,0,0,0,2.8-2l1.93-5.56a3,3,0,0,0-1.63-3.7l-1.3-.55A3,3,0,0,0,136.2,332.74Z" style="fill: rgb(255, 255, 255); opacity: 0.4; transform-origin: 138.6px 337.351px;" class="animable"></path></g><g id="ells9b4hcxmsn"><path d="M164.28,318.58l-.75,1.22a1.47,1.47,0,0,0-.17,1.1l.44,1.77a1.44,1.44,0,0,0,1.4,1.09h0a1.43,1.43,0,0,0,1.36-1l.95-2.71a1.44,1.44,0,0,0-.8-1.8l-.63-.27A1.45,1.45,0,0,0,164.28,318.58Z" style="fill: rgb(255, 255, 255); opacity: 0.4; transform-origin: 165.455px 320.815px;" class="animable"></path></g><g id="eltebd0d4qjd"><path d="M178.27,315.53l-1.06,1.74a2,2,0,0,0-.24,1.57l.62,2.49a2,2,0,0,0,2,1.55h0a2,2,0,0,0,1.93-1.37l1.34-3.85a2,2,0,0,0-1.13-2.55l-.9-.38A2.05,2.05,0,0,0,178.27,315.53Z" style="fill: rgb(255, 255, 255); opacity: 0.4; transform-origin: 179.944px 318.72px;" class="animable"></path></g><g id="elyxvb056prmd"><path d="M125.06,306.57,122.48,313a1.87,1.87,0,0,0-.07.22l-.33,2a1.08,1.08,0,0,0,1.07,1.26h0a1.07,1.07,0,0,0,.71-.26l2.28-2a1.11,1.11,0,0,0,.37-.82v-1.8a1.07,1.07,0,0,1,.2-.62l1.45-2.07a1.09,1.09,0,0,0,.13-1l-.56-1.57a1.08,1.08,0,0,0-1.36-.66l-.65.21A1.08,1.08,0,0,0,125.06,306.57Z" style="fill: rgb(255, 255, 255); opacity: 0.4; transform-origin: 125.211px 311.052px;" class="animable"></path></g><g id="elz6ulyf2u37p"><path d="M108.33,352.91l-1,2.29a1.09,1.09,0,0,0,.88,1.52l3.59.36a1.11,1.11,0,0,0,.91-.35l1.46-1.61a1.09,1.09,0,0,0,.28-.73v-2.47a1.08,1.08,0,0,0-1.45-1l-4,1.44A1.09,1.09,0,0,0,108.33,352.91Z" style="fill: rgb(255, 255, 255); opacity: 0.4; transform-origin: 110.844px 353.969px;" class="animable"></path></g><g id="el9i667oau26"><path d="M121.65,371.16l-2.07,1.42a1.08,1.08,0,0,0,0,1.75l2.87,2.18a1.1,1.1,0,0,0,1,.18l2.08-.61a1.1,1.1,0,0,0,.62-.48l1.29-2.11a1.08,1.08,0,0,0-.7-1.62l-4.18-.88A1.06,1.06,0,0,0,121.65,371.16Z" style="fill: rgb(255, 255, 255); opacity: 0.4; transform-origin: 123.366px 373.846px;" class="animable"></path></g><g id="elp13nz0jojtq"><path d="M95.88,376.17l2.34-5.69a.76.76,0,0,1,.62-.47l3.39-.45a.72.72,0,0,1,.65.22l2.07,2.07a.77.77,0,0,1-.06,1.15l-1.82,1.47a.79.79,0,0,0-.22.92h0a.77.77,0,0,1-.41,1l-1.79.76a.81.81,0,0,1-.31.06H96.6A.78.78,0,0,1,95.88,376.17Z" style="fill: rgb(255, 255, 255); opacity: 0.4; transform-origin: 100.507px 373.38px;" class="animable"></path></g><g id="elaldqmcyiuju"><path d="M104.35,362.17l-.22,1.45a1.8,1.8,0,0,0,1.4,2l2,.42a1.79,1.79,0,0,0,1.68-.52l1.07-1.13a1.78,1.78,0,0,0,.27-2.1l-.4-.73a1.78,1.78,0,0,0-1.57-.93h-2.46A1.78,1.78,0,0,0,104.35,362.17Z" style="fill: rgb(255, 255, 255); opacity: 0.4; transform-origin: 107.445px 363.355px;" class="animable"></path></g><g id="elf2h8o4zd8f"><path d="M120.19,349l-1,1.54a1.39,1.39,0,0,0,.37,1.9h0a1.39,1.39,0,0,0,1.74-.13l1.14-1.07a1.39,1.39,0,0,0,.43-1v-.5a1.38,1.38,0,0,0-1.77-1.33l-.13,0A1.45,1.45,0,0,0,120.19,349Z" style="fill: rgb(255, 255, 255); opacity: 0.4; transform-origin: 120.917px 350.52px;" class="animable"></path></g><g id="el3ovwhlrlwdk"><path d="M132.71,366.91,129.46,365a2.84,2.84,0,0,0-3.85.95h0a2.84,2.84,0,0,0,.45,3.54l2.31,2.22a2.85,2.85,0,0,0,2.11.78l1-.05a2.83,2.83,0,0,0,2.53-3.77l-.09-.26A2.82,2.82,0,0,0,132.71,366.91Z" style="fill: rgb(255, 255, 255); opacity: 0.4; transform-origin: 129.679px 368.551px;" class="animable"></path></g><g id="el5f5qc6b7z8b"><path d="M122.6,329.81l-1,1.54a1.38,1.38,0,0,0,.37,1.9h0a1.39,1.39,0,0,0,1.74-.13l1.14-1.07a1.41,1.41,0,0,0,.43-1v-.5a1.39,1.39,0,0,0-1.78-1.33l-.12,0A1.37,1.37,0,0,0,122.6,329.81Z" style="fill: rgb(255, 255, 255); opacity: 0.4; transform-origin: 123.325px 331.33px;" class="animable"></path></g><g id="el3q9t3l87qyz"><path d="M156,329.44l-2.15-.39a1.63,1.63,0,0,0-1.91,1.28h0a1.66,1.66,0,0,0,.95,1.84l1.69.75a1.7,1.7,0,0,0,1.31,0l.55-.24a1.64,1.64,0,0,0,.63-2.55L157,330A1.66,1.66,0,0,0,156,329.44Z" style="fill: rgb(255, 255, 255); opacity: 0.4; transform-origin: 154.675px 331.036px;" class="animable"></path></g><g id="elqn6grejofk"><path d="M128.25,335.75l-2.15-.39a1.62,1.62,0,0,0-1.9,1.28h0a1.64,1.64,0,0,0,.94,1.84l1.7.74a1.63,1.63,0,0,0,1.3,0l.55-.24a1.63,1.63,0,0,0,.63-2.55l-.1-.12A1.63,1.63,0,0,0,128.25,335.75Z" style="fill: rgb(255, 255, 255); opacity: 0.4; transform-origin: 126.931px 337.343px;" class="animable"></path></g><g id="elb9rc3q7wotf"><path d="M150.86,306.33l-1,1.54a1.38,1.38,0,0,0,.37,1.9h0a1.39,1.39,0,0,0,1.74-.13l1.13-1.07a1.39,1.39,0,0,0,.44-1v-.5a1.39,1.39,0,0,0-1.78-1.33l-.12,0A1.37,1.37,0,0,0,150.86,306.33Z" style="fill: rgb(255, 255, 255); opacity: 0.4; transform-origin: 151.585px 307.85px;" class="animable"></path></g><g id="elvl5mf9v88g"><path d="M122.33,343.38l-.53,1.3a.88.88,0,0,0,.82,1.21h0a.87.87,0,0,0,.44-.13l1.68-1a.88.88,0,0,0,.43-.76v-1.09a.87.87,0,0,0-1.37-.72l-1.15.8A.91.91,0,0,0,122.33,343.38Z" style="fill: rgb(255, 255, 255); opacity: 0.4; transform-origin: 123.453px 343.961px;" class="animable"></path></g><g id="eldgwssmu5ny4"><path d="M109.65,347.74l-.53,1.29a.88.88,0,0,0,.82,1.21h0a.86.86,0,0,0,.44-.12l1.68-1a.88.88,0,0,0,.43-.76v-1.1a.88.88,0,0,0-1.37-.72l-1.15.8A.94.94,0,0,0,109.65,347.74Z" style="fill: rgb(255, 255, 255); opacity: 0.4; transform-origin: 110.773px 348.315px;" class="animable"></path></g><g id="eldd9knl9xp7"><path d="M138.65,371.71l-1.72,1.41a1.4,1.4,0,0,0,.23,2.32h0a1.38,1.38,0,0,0,.72.16l3.11-.12a1.39,1.39,0,0,0,1.18-.74l.83-1.54a1.4,1.4,0,0,0-1.39-2.05l-2.22.25A1.44,1.44,0,0,0,138.65,371.71Z" style="fill: rgb(255, 255, 255); opacity: 0.4; transform-origin: 139.791px 373.372px;" class="animable"></path></g><g id="els38a3ku630l"><path d="M117.43,328.49l-1.67,2.79a.55.55,0,0,0,.47.83H118a.54.54,0,0,0,.51-.37l.68-2a.53.53,0,0,0-.13-.56l-.81-.81A.55.55,0,0,0,117.43,328.49Z" style="fill: rgb(255, 255, 255); opacity: 0.4; transform-origin: 117.452px 330.174px;" class="animable"></path></g><g id="elumjfnxqitua"><path d="M145.17,328.25l-1.57-8.86a1.51,1.51,0,0,0-2.48-.88l-3.77,3.28a1.52,1.52,0,0,0-.41,1.71l2.18,5.36a1.51,1.51,0,0,0,1.3.94l3.16.22A1.5,1.5,0,0,0,145.17,328.25Z" style="fill: rgb(255, 255, 255); opacity: 0.4; transform-origin: 141.013px 324.081px;" class="animable"></path></g><g id="ell6r3n73iqn"><path d="M118.62,378.33l-1.29-4a.71.71,0,0,0-1.2-.25l-1.54,1.76a.71.71,0,0,0-.08.81l1.35,2.34a.71.71,0,0,0,.66.35l1.48-.1A.71.71,0,0,0,118.62,378.33Z" style="fill: rgb(255, 255, 255); opacity: 0.4; transform-origin: 116.534px 376.594px;" class="animable"></path></g><g id="elj2jwb6k2dcp"><path d="M174.83,305l-8.46,1.71c-1.11.23-1.24,1.63-.24,2.51l4.27,3.72a1.73,1.73,0,0,0,1.82.38l4.8-2.26a1.16,1.16,0,0,0,.61-1.32l-.61-3.17A2,2,0,0,0,174.83,305Z" style="fill: rgb(255, 255, 255); opacity: 0.4; transform-origin: 171.559px 309.209px;" class="animable"></path></g><g id="elgnasozzrtmi"><path d="M148.73,344l-3.46-2.82a.76.76,0,0,0-1.22.48l-.35,2.45a.75.75,0,0,0,.41.77l2.55,1.31a.75.75,0,0,0,.79-.07l1.26-.94A.75.75,0,0,0,148.73,344Z" style="fill: rgb(255, 255, 255); opacity: 0.4; transform-origin: 146.35px 343.644px;" class="animable"></path></g><g id="eldrq1xc31go6"><path d="M147.79,314.83l-1.67,2.78a.55.55,0,0,0,.47.83h1.81a.54.54,0,0,0,.51-.37l.68-2a.54.54,0,0,0-.13-.56l-.81-.81A.55.55,0,0,0,147.79,314.83Z" style="fill: rgb(255, 255, 255); opacity: 0.4; transform-origin: 147.832px 316.494px;" class="animable"></path></g><g id="el3mxal5q5p7k"><path d="M126.89,323.63l-1.67,2.79a.55.55,0,0,0,.47.83h1.8a.55.55,0,0,0,.52-.37l.68-2a.59.59,0,0,0-.13-.57l-.81-.81A.55.55,0,0,0,126.89,323.63Z" style="fill: rgb(255, 255, 255); opacity: 0.4; transform-origin: 126.929px 325.299px;" class="animable"></path></g><g id="el4dpz85su5h5"><path d="M121.81,319.13l.86-.31a1.33,1.33,0,0,1,1.1.09l1.52.87a1.31,1.31,0,0,1,.66,1.14v1a1.31,1.31,0,0,1-2,1.09h0a1.3,1.3,0,0,0-1.37-.06l-.48.26a1.31,1.31,0,0,1-1.81-1.72l.83-1.69A1.31,1.31,0,0,1,121.81,319.13Z" style="fill: rgb(255, 255, 255); opacity: 0.4; transform-origin: 123.054px 321.057px;" class="animable"></path></g><g id="el9pva9lg3pj6"><path d="M158.7,373.32l-.84,1.09a2.33,2.33,0,0,1-1.43.88l-2.53.45a1.65,1.65,0,0,1-1.66-.59l-.74-1c-.77-1.09.22-2.78,1.73-2.94h0A2.35,2.35,0,0,0,155,370l.4-.7c.93-1.64,3.36-1.52,3.52.17l.23,2.49A1.92,1.92,0,0,1,158.7,373.32Z" style="fill: rgb(255, 255, 255); opacity: 0.4; transform-origin: 155.193px 371.957px;" class="animable"></path></g><g id="elhvm0ewnpc6b"><path d="M140.27,304.6l2,.72a3,3,0,0,1,1.84,1.79l1.44,3.82a3.06,3.06,0,0,1-.5,3l-1.48,1.79a3,3,0,0,1-5.27-1.08h0a3,3,0,0,0-2.36-2.13l-1.26-.23a3,3,0,0,1-.71-5.77l4-1.82A3.05,3.05,0,0,1,140.27,304.6Z" style="fill: rgb(255, 255, 255); opacity: 0.4; transform-origin: 138.901px 310.648px;" class="animable"></path></g><g id="el683reb2mpza"><path d="M113.45,363.5l-.39-2.11a3,3,0,0,1,.63-2.48l2.57-3.16a3.06,3.06,0,0,1,2.87-1.08l2.28.38a3.05,3.05,0,0,1,1.72,5.1h0a3,3,0,0,0-.66,3.12l.43,1.2a3,3,0,0,1-4.64,3.5l-3.58-2.54A3.09,3.09,0,0,1,113.45,363.5Z" style="fill: rgb(255, 255, 255); opacity: 0.4; transform-origin: 118.482px 361.627px;" class="animable"></path></g><g id="elysvdaah3sm"><line x1="348.32" y1="337.51" x2="349.22" y2="341.12" style="opacity: 0.2; transform-origin: 348.77px 339.315px;" class="animable"></line></g><polygon points="403.55 382.51 176.89 382.51 209.51 303.78 373.16 303.78 403.55 382.51" style="fill: rgb(235, 235, 235); transform-origin: 290.22px 343.145px;" id="elw9hff8831r" class="animable"></polygon><g id="eltxnje4q4g5"><path d="M285.48,319.62l-2.09,1a1.6,1.6,0,0,0-.58,2.47l.95,1.17a1.62,1.62,0,0,0,1.25.6h2.07a1.62,1.62,0,0,0,1.48-2.25l-.92-2.13A1.61,1.61,0,0,0,285.48,319.62Z" style="fill: rgb(255, 255, 255); opacity: 0.4; transform-origin: 285.568px 322.167px;" class="animable"></path></g><g id="elj9fmr9envep"><path d="M298.16,330.89v.16a2.73,2.73,0,0,0,2.73,2.73h1.41a2.73,2.73,0,0,0,2.73-2.73V329a2.71,2.71,0,0,0-1.3-2.32h0a2.74,2.74,0,0,0-3.63.7l-1.41,1.9A2.78,2.78,0,0,0,298.16,330.89Z" style="fill: rgb(255, 255, 255); opacity: 0.4; transform-origin: 301.595px 330.028px;" class="animable"></path></g><g id="el5rfj3l6ih3f"><path d="M242.36,360.68v.16a2.74,2.74,0,0,0,2.74,2.74h1.4a2.74,2.74,0,0,0,2.73-2.74v-2.06a2.73,2.73,0,0,0-1.3-2.33h0a2.73,2.73,0,0,0-3.62.7l-1.41,1.91A2.7,2.7,0,0,0,242.36,360.68Z" style="fill: rgb(255, 255, 255); opacity: 0.4; transform-origin: 245.795px 359.813px;" class="animable"></path></g><g id="elj54eqonvadk"><path d="M266.58,346.21l1.66,2a2.26,2.26,0,0,0,2.89.49l.12-.07a2.26,2.26,0,0,0,.95-2.78l-.75-1.9a2.27,2.27,0,0,0-2.11-1.44h-1a2.27,2.27,0,0,0-2.27,2.27h0A2.25,2.25,0,0,0,266.58,346.21Z" style="fill: rgb(255, 255, 255); opacity: 0.4; transform-origin: 269.215px 345.764px;" class="animable"></path></g><g id="elkzwyzhfs7us"><path d="M221.72,343.62l1.66,2a2.26,2.26,0,0,0,2.89.49l.12-.07a2.26,2.26,0,0,0,1-2.78l-.75-1.91a2.27,2.27,0,0,0-2.11-1.43h-1a2.27,2.27,0,0,0-2.27,2.27h0A2.25,2.25,0,0,0,221.72,343.62Z" style="fill: rgb(255, 255, 255); opacity: 0.4; transform-origin: 224.4px 343.174px;" class="animable"></path></g><g id="eli331mr9cn1n"><path d="M286.69,338.46l1.37-1.21a1.42,1.42,0,0,1,.65-.32l2.35-.5a1.44,1.44,0,0,1,1.17.28l1.34,1.06a1.41,1.41,0,0,1,.53,1.11v.64a1.42,1.42,0,0,1-1.41,1.42h-5.06a1.42,1.42,0,0,1-1.33-.91h0A1.41,1.41,0,0,1,286.69,338.46Z" style="fill: rgb(255, 255, 255); opacity: 0.4; transform-origin: 290.153px 338.671px;" class="animable"></path></g><g id="eld8nt7iojqfo"><path d="M220.87,309.43l1.37-1.21a1.39,1.39,0,0,1,.65-.33l2.36-.49a1.45,1.45,0,0,1,1.17.28l1.33,1.06a1.42,1.42,0,0,1,.54,1.11v.64a1.43,1.43,0,0,1-1.42,1.42h-5.06a1.42,1.42,0,0,1-1.32-.91h0A1.42,1.42,0,0,1,220.87,309.43Z" style="fill: rgb(255, 255, 255); opacity: 0.4; transform-origin: 224.343px 309.642px;" class="animable"></path></g><g id="el4esfnq7ud9k"><path d="M280.4,331.36l-.49.8a1,1,0,0,0-.11.72l.29,1.15a.94.94,0,0,0,.91.72h0a1,1,0,0,0,.89-.64l.62-1.77a.94.94,0,0,0-.52-1.17l-.41-.18A1,1,0,0,0,280.4,331.36Z" style="fill: rgb(255, 255, 255); opacity: 0.4; transform-origin: 281.168px 332.837px;" class="animable"></path></g><g id="elr6bhjbydba"><path d="M259,324.94l-.49.8a.92.92,0,0,0-.12.72l.29,1.15a1,1,0,0,0,.92.72h0a1,1,0,0,0,.89-.63l.61-1.78a.93.93,0,0,0-.52-1.17l-.41-.18A1,1,0,0,0,259,324.94Z" style="fill: rgb(255, 255, 255); opacity: 0.4; transform-origin: 259.758px 326.419px;" class="animable"></path></g><g id="el25e63b02iwe"><path d="M232.67,328.51l-1.54,2.5a3,3,0,0,0-.36,2.27l.91,3.62a3,3,0,0,0,2.87,2.24h0a3,3,0,0,0,2.8-2l1.93-5.56a3,3,0,0,0-1.63-3.7l-1.3-.55A3,3,0,0,0,232.67,328.51Z" style="fill: rgb(255, 255, 255); opacity: 0.4; transform-origin: 235.062px 333.123px;" class="animable"></path></g><g id="el3uciskckpj5"><path d="M259.26,315.4l2.76,1a3,3,0,0,0,2.29-.11l3.36-1.61a3,3,0,0,0,1.62-3.27h0a3,3,0,0,0-2.51-2.34l-5.84-.77a3,3,0,0,0-3.29,2.34l-.28,1.38A3,3,0,0,0,259.26,315.4Z" style="fill: rgb(255, 255, 255); opacity: 0.4; transform-origin: 263.331px 312.427px;" class="animable"></path></g><g id="el8e48ng8vvvg"><path d="M228.66,320.37l-.75,1.22a1.48,1.48,0,0,0-.17,1.11l.44,1.76a1.44,1.44,0,0,0,1.4,1.09h0a1.44,1.44,0,0,0,1.37-1l.94-2.71a1.44,1.44,0,0,0-.8-1.8l-.63-.27A1.45,1.45,0,0,0,228.66,320.37Z" style="fill: rgb(255, 255, 255); opacity: 0.4; transform-origin: 229.834px 322.605px;" class="animable"></path></g><g id="el4r1dm1r35u"><path d="M242.66,317.33l-1.07,1.73a2,2,0,0,0-.24,1.57l.62,2.5a2.05,2.05,0,0,0,2,1.55h0a2,2,0,0,0,1.93-1.38l1.34-3.84a2.06,2.06,0,0,0-1.13-2.56l-.89-.38A2,2,0,0,0,242.66,317.33Z" style="fill: rgb(255, 255, 255); opacity: 0.4; transform-origin: 244.318px 320.509px;" class="animable"></path></g><g id="elffq6tdo15av"><path d="M306.27,310.3l-1,1.54a1.38,1.38,0,0,0,.37,1.9h0a1.37,1.37,0,0,0,1.73-.13l1.14-1.07a1.4,1.4,0,0,0,.44-1V311a1.38,1.38,0,0,0-1.78-1.33l-.12,0A1.43,1.43,0,0,0,306.27,310.3Z" style="fill: rgb(255, 255, 255); opacity: 0.4; transform-origin: 306.995px 311.799px;" class="animable"></path></g><g id="elqb5hh0g339q"><path d="M290.75,373.44l-.53,1.29a.88.88,0,0,0,.81,1.21h0a.89.89,0,0,0,.45-.12l1.68-1a.86.86,0,0,0,.43-.75V373a.87.87,0,0,0-1.37-.72l-1.15.8A.88.88,0,0,0,290.75,373.44Z" style="fill: rgb(255, 255, 255); opacity: 0.4; transform-origin: 291.873px 374.031px;" class="animable"></path></g><g id="elgrtpr6hn4gc"><path d="M306.77,345.9a.55.55,0,0,0-.86.1l-1.67,2.79a.55.55,0,0,0,.47.83h1.8a.55.55,0,0,0,.52-.37" style="fill: rgb(255, 255, 255); opacity: 0.4; transform-origin: 305.597px 347.679px;" class="animable"></path></g><g id="elhk3tazgnmxc"><path d="M239.21,306.79l-8.46,1.72c-1.11.22-1.24,1.62-.23,2.5l4.26,3.73a1.75,1.75,0,0,0,1.82.38l4.8-2.27a1.15,1.15,0,0,0,.61-1.31l-.61-3.18A2,2,0,0,0,239.21,306.79Z" style="fill: rgb(255, 255, 255); opacity: 0.4; transform-origin: 235.939px 311.002px;" class="animable"></path></g><g id="elv6d5re5ede"><path d="M285,359.45l.86-.32a1.33,1.33,0,0,1,1.1.1l1.52.87a1.29,1.29,0,0,1,.66,1.13v1a1.3,1.3,0,0,1-2,1.08h0a1.32,1.32,0,0,0-1.37-.06l-.48.27a1.31,1.31,0,0,1-1.81-1.72l.83-1.7A1.3,1.3,0,0,1,285,359.45Z" style="fill: rgb(255, 255, 255); opacity: 0.4; transform-origin: 286.244px 361.369px;" class="animable"></path></g><g id="elbbxy39rscuw"><path d="M251.54,340.23l.86-.31a1.33,1.33,0,0,1,1.1.09l1.52.87a1.31,1.31,0,0,1,.66,1.14v1a1.31,1.31,0,0,1-2,1.09h0a1.3,1.3,0,0,0-1.37-.06l-.48.26a1.3,1.3,0,0,1-1.81-1.71l.83-1.7A1.35,1.35,0,0,1,251.54,340.23Z" style="fill: rgb(255, 255, 255); opacity: 0.4; transform-origin: 252.781px 342.162px;" class="animable"></path></g><g id="el1y9s7vmrnlg"><rect x="166.2" y="299.33" width="165.27" height="3.95" style="fill: rgb(255, 255, 255); opacity: 0.2; transform-origin: 248.835px 301.305px;" class="animable"></rect></g><circle cx="248.68" cy="76" r="31.05" style="fill: rgb(240, 240, 240); transform-origin: 248.68px 76px;" id="elsjtfphc2e0a" class="animable"></circle><path d="M411.73,105h0a8.24,8.24,0,0,0-7.84-6.62l-22.19-.63.68-1.6a8.65,8.65,0,0,0-8.81-12l-9,.89a14.75,14.75,0,0,0-23.26-10.18l-1-2.37a11.79,11.79,0,0,0-.75-1.51,14.94,14.94,0,1,0-27.35,11.84l0,.21-3.59-1.13A9.8,9.8,0,0,0,300,83.28h0A9.79,9.79,0,0,0,296,93.06l.5,2.7-3.44,1.58a9,9,0,0,0-3.16,13.84l.55.66a8.94,8.94,0,0,0,7,3.25H402.62a10.46,10.46,0,0,0,4.78-1.15h0A8.24,8.24,0,0,0,411.73,105Z" style="fill: rgb(245, 245, 245); transform-origin: 349.881px 88.0329px;" id="elxuj5065dp8f" class="animable"></path><path d="M232.79,126.6a9.31,9.31,0,0,0-8.31-9.25v0h-23.7l.09-.47a12.89,12.89,0,0,0-16.38-19.4A19.69,19.69,0,0,0,170.27,82a13.47,13.47,0,0,0-4.58-.68l-.55,0a19.69,19.69,0,0,0-19.58,17.59l-1.29,2L135.59,97a12.1,12.1,0,0,0-16.57,7.7l-1.2,4.15a9.9,9.9,0,0,0-19.41,2.73,9.76,9.76,0,0,0,.44,2.93,7.67,7.67,0,0,0,.54,2.13l1,2.31-19.2-.27a8.23,8.23,0,0,0-7.83,6.62h0a8.25,8.25,0,0,0,4.33,8.95l.49.24a8.1,8.1,0,0,0,3.74.91l108.25.4v0h32.35c.32,0,.65.05,1,.05s.66,0,1-.05h0A9.31,9.31,0,0,0,232.79,126.6Z" style="fill: rgb(245, 245, 245); transform-origin: 152.996px 108.583px;" id="elywvsdhk4waa" class="animable"></path></g><g id="freepik--Shadow--inject-2" class="animable" style="transform-origin: 250px 416.24px;"><ellipse id="freepik--path--inject-2" cx="250" cy="416.24" rx="193.89" ry="11.32" style="fill: rgb(245, 245, 245); transform-origin: 250px 416.24px;" class="animable"></ellipse></g><g id="freepik--wood-2--inject-2" class="animable" style="transform-origin: 405.61px 315.975px;"><path d="M426.93,328.46c.21.33.41.67.59,1l-38.3,49.94s-.62-.1-1.66-.35a44.2,44.2,0,0,1-4.86-1.44c-.59-.22-1.21-.45-1.84-.71-4.22-1.75-9.1-4.61-12.24-9.08-.24-.34-.46-.69-.67-1.05a17.38,17.38,0,0,1-2.3-6.13l39.51-48.59S420.44,318,426.93,328.46Z" style="fill: rgb(10, 11, 44); transform-origin: 396.585px 345.725px;" id="elx4jmye0wsb" class="animable"></path><g id="el1tcs5lurbr0i"><path d="M427.52,329.47a24.12,24.12,0,0,1-14.4-6.05c-6.92-6-8-11.36-8-11.36S421.42,318.34,427.52,329.47Z" style="fill: rgb(245, 245, 245); opacity: 0.42; transform-origin: 416.32px 320.765px;" class="animable"></path></g><g id="el7tdkuywzvby"><g style="opacity: 0.1; transform-origin: 415.779px 321.051px;" class="animable"><path d="M416.66,319c-2-1.12-4-2.24-6.05-3.18a13.82,13.82,0,0,0-1.57-.62,2.7,2.7,0,0,0-.39-.08h-.23s.05,0,.06-.05a1.21,1.21,0,0,0,.1.25,3.13,3.13,0,0,0,.21.34A21.34,21.34,0,0,0,411,318.2a66.35,66.35,0,0,0,5,4.63q1.31,1.1,2.7,2.07a15.81,15.81,0,0,0,2.89,1.67,5.82,5.82,0,0,0,.77.26,1.36,1.36,0,0,0,.53,0,1.44,1.44,0,0,0-.12-.41,4.39,4.39,0,0,0-.41-.68,18.89,18.89,0,0,0-2.23-2.52,29.82,29.82,0,0,0-2.56-2.21,16.24,16.24,0,0,0-1.39-.95,5.46,5.46,0,0,0-1.47-.69,1.84,1.84,0,0,0-.37-.07c-.13,0-.15,0-.12,0a.82.82,0,0,0,.08.22,2.9,2.9,0,0,0,.2.33,11.93,11.93,0,0,0,1.12,1.25,24.58,24.58,0,0,0,2.59,2.19,8.94,8.94,0,0,0,1.43.89,1.77,1.77,0,0,0,.37.12h0a.48.48,0,0,0-.06-.14,4.49,4.49,0,0,0-.52-.65c-.79-.82-1.63-1.59-2.48-2.36a30.7,30.7,0,0,1,2.6,2.24,3.71,3.71,0,0,1,.58.66.48.48,0,0,1,.1.25s0,.18-.11.19a.32.32,0,0,1-.16,0,1.56,1.56,0,0,1-.45-.11,9,9,0,0,1-1.52-.86,23.25,23.25,0,0,1-2.69-2.15,11.2,11.2,0,0,1-1.21-1.27,3.73,3.73,0,0,1-.25-.39.79.79,0,0,1-.12-.59.49.49,0,0,1,.3-.31.86.86,0,0,1,.3,0,3.25,3.25,0,0,1,.48.07,9.63,9.63,0,0,1,3.09,1.68,28.15,28.15,0,0,1,2.64,2.24,19.9,19.9,0,0,1,2.33,2.59,5.85,5.85,0,0,1,.47.77,1.77,1.77,0,0,1,.17.49.91.91,0,0,1,0,.33.63.63,0,0,1-.21.37l-.18.11-.16,0a1,1,0,0,1-.29,0,3.4,3.4,0,0,1-.49-.07,5.79,5.79,0,0,1-.86-.29,16.45,16.45,0,0,1-3-1.76c-.94-.67-1.84-1.39-2.72-2.13a55.71,55.71,0,0,1-5-4.74,24,24,0,0,1-2.2-2.68c-.07-.12-.15-.25-.22-.39a1.47,1.47,0,0,1-.1-.22.53.53,0,0,1,0-.34.31.31,0,0,1,.19-.2l.16,0a1,1,0,0,1,.25,0l.45.11a12.6,12.6,0,0,1,1.6.68A65.84,65.84,0,0,1,416.66,319Z" id="el3wh55gnkkn3" class="animable" style="transform-origin: 415.779px 321.051px;"></path></g></g><g id="els36mf5l7g7i"><g style="opacity: 0.2; transform-origin: 397.735px 349.47px;" class="animable"><path d="M394.53,333.71l-25.91,34.12c-.24-.34-.46-.69-.67-1.05Z" id="elg52738kb667" class="animable" style="transform-origin: 381.24px 350.77px;"></path><path d="M409.3,319.53c.16.2.32.4.5.59l0,.37L382.87,355Z" id="elt0mk21a3yt" class="animable" style="transform-origin: 396.335px 337.265px;"></path><path d="M403.35,342.73,382.7,377.62c-.59-.22-1.21-.45-1.84-.71Z" id="elodge0jnxbse" class="animable" style="transform-origin: 392.105px 360.175px;"></path><path d="M423.6,328.88l-21.86,27.79,20.71-28.1C422.85,328.69,423.24,328.79,423.6,328.88Z" id="elbbjlcxmq7nl" class="animable" style="transform-origin: 412.67px 342.62px;"></path><path d="M427.52,329.47l-38.3,49.94s-.62-.1-1.66-.35l38.66-49.69A12.1,12.1,0,0,0,427.52,329.47Z" id="elh8e4jtzzm8a" class="animable" style="transform-origin: 407.54px 354.39px;"></path></g></g><g id="el0bdcup6l6k8d"><path d="M426.93,328.46c.21.33.41.67.59,1l-38.3,49.94s-.62-.1-1.66-.35a44.2,44.2,0,0,1-4.86-1.44c-.59-.22-1.21-.45-1.84-.71-4.22-1.75-9.1-4.61-12.24-9.08-.24-.34-.46-.69-.67-1.05a17.38,17.38,0,0,1-2.3-6.13l39.51-48.59S420.44,318,426.93,328.46Z" style="opacity: 0.3; transform-origin: 396.585px 345.725px;" class="animable"></path></g><path d="M398.66,365.24l3.58,7s.89.37,2.66-1.37l-1.35-11.06S400.24,359.63,398.66,365.24Z" style="fill: rgb(10, 11, 44); transform-origin: 401.78px 366.041px;" id="elkoyr4cx4yq" class="animable"></path><g id="eltlllvch1p7"><path d="M403.56,359.78l1.34,11c-1.76,1.75-2.66,1.38-2.66,1.38l-3.58-7C400.24,359.63,403.56,359.78,403.56,359.78Z" style="opacity: 0.3; transform-origin: 401.78px 365.986px;" class="animable"></path></g><g id="elqdgj1pdcmr"><path d="M404.9,370.82c-1.76,1.75-2.66,1.38-2.66,1.38S403.54,370.1,404.9,370.82Z" style="fill: rgb(245, 245, 245); opacity: 0.42; transform-origin: 403.57px 371.451px;" class="animable"></path></g><path d="M431.18,283.68c-.43,0-.85-.09-1.27-.16-.85-.1-1.68-.23-2.5-.38l-.41-.08c-1.8-.33-3.53-.73-5.17-1.18l-1.23-.35a60.23,60.23,0,0,1-8.39-3.22l-.48-.22c-1.47-.7-2.84-1.43-4.09-2.16-.21-.12-.43-.24-.63-.37-1.09-.65-2.1-1.29-3-1.92l7.86-21.09a61,61,0,0,1,17,3.56l.62.25.19.08.91.38c.92.4,1.83.84,2.72,1.32.35.19.71.38,1,.58.65.39,1.29.8,1.91,1.24l.14.1a4.35,4.35,0,0,1,.43.32l.05,0,.86.68c.31.26.61.51.9.78Z" style="fill: rgb(10, 11, 44); transform-origin: 421.305px 268.115px;" id="elodijn4mfbg" class="animable"></path><g id="elb1dgx7dhnjc"><path d="M431.18,283.68c-.43,0-.85-.09-1.27-.16-.85-.1-1.68-.23-2.5-.38l-.41-.08c-1.8-.33-3.53-.73-5.17-1.18l-1.23-.35a60.23,60.23,0,0,1-8.39-3.22l-.48-.22c-1.47-.7-2.84-1.43-4.09-2.16-.21-.12-.43-.24-.63-.37-1.09-.65-2.1-1.29-3-1.92l7.86-21.09a61,61,0,0,1,17,3.56l.62.25.19.08.91.38c.92.4,1.83.84,2.72,1.32.35.19.71.38,1,.58.65.39,1.29.8,1.91,1.24l.14.1a4.35,4.35,0,0,1,.43.32l.05,0,.86.68c.31.26.61.51.9.78Z" style="opacity: 0.3; transform-origin: 421.305px 268.115px;" class="animable"></path></g><g id="ellb9a7p1e1lk"><path d="M438.6,261.86A24,24,0,0,1,423,260.75c-8.48-3.48-11.18-8.21-11.18-8.21S429.26,253.28,438.6,261.86Z" style="fill: rgb(245, 245, 245); opacity: 0.42; transform-origin: 425.21px 257.606px;" class="animable"></path></g><g id="el6kruhp9qj98"><g style="opacity: 0.1; transform-origin: 424.864px 257.692px;" class="animable"><path d="M425,255.42c-2.25-.42-4.49-.85-6.76-1.07a10.56,10.56,0,0,0-1.68-.08,1.61,1.61,0,0,0-.39,0,.69.69,0,0,0-.17.05l0,0s0,0,0-.06.09.13.18.2.2.17.31.26a22.78,22.78,0,0,0,2.92,1.71,67.77,67.77,0,0,0,6.22,2.78c1.06.4,2.13.78,3.22,1.09a15.74,15.74,0,0,0,3.28.65,5.34,5.34,0,0,0,.8,0,1.34,1.34,0,0,0,.52-.13,1.51,1.51,0,0,0-.24-.35,5.15,5.15,0,0,0-.61-.51,18.58,18.58,0,0,0-2.92-1.67,28.09,28.09,0,0,0-3.13-1.27,16.39,16.39,0,0,0-1.62-.46,5.71,5.71,0,0,0-1.62-.18,1.44,1.44,0,0,0-.37.05c-.13,0-.13.09-.12,0a.82.82,0,0,0,.14.19c.09.08.2.16.31.24a10.29,10.29,0,0,0,1.45.83,25.26,25.26,0,0,0,3.16,1.24,8.77,8.77,0,0,0,1.63.39,1.65,1.65,0,0,0,.39,0l.05,0v0h0s-.06-.07-.1-.11a5.58,5.58,0,0,0-.7-.45c-1-.53-2.06-1-3.11-1.44a33.69,33.69,0,0,1,3.19,1.28,5.33,5.33,0,0,1,.76.44.47.47,0,0,1,.17.21s0,.18,0,.21-.1,0-.15.08a1.45,1.45,0,0,1-.46,0,8.07,8.07,0,0,1-1.71-.32,23.83,23.83,0,0,1-3.25-1.18,10.41,10.41,0,0,1-1.54-.82,2.4,2.4,0,0,1-.37-.28.84.84,0,0,1-.3-.53.45.45,0,0,1,.19-.38.82.82,0,0,1,.27-.13,2.15,2.15,0,0,1,.47-.09,9.56,9.56,0,0,1,3.47.6,29.75,29.75,0,0,1,3.21,1.27,18.61,18.61,0,0,1,3,1.71,5.38,5.38,0,0,1,.7.58,2,2,0,0,1,.32.41.87.87,0,0,1,.1.31.63.63,0,0,1-.08.42,1,1,0,0,1-.13.16l-.14.09a.9.9,0,0,1-.27.12,2.81,2.81,0,0,1-.49.09,6.78,6.78,0,0,1-.9,0,16.75,16.75,0,0,1-3.42-.71c-1.11-.33-2.19-.72-3.26-1.14a55.17,55.17,0,0,1-6.24-2.9,21.46,21.46,0,0,1-2.94-1.83,3.07,3.07,0,0,1-.34-.29,1.46,1.46,0,0,1-.16-.19.5.5,0,0,1-.13-.31.33.33,0,0,1,.13-.25l.13-.08.25-.06a2.45,2.45,0,0,1,.46,0,11,11,0,0,1,1.73.13A66.78,66.78,0,0,1,425,255.42Z" id="elvp949rhngke" class="animable" style="transform-origin: 424.864px 257.692px;"></path></g></g><g id="elbrbuwxe7du5"><g style="opacity: 0.2; transform-origin: 422.81px 270.99px;" class="animable"><path d="M414.27,259.35l-6.63,16.58c-.21-.12-.43-.24-.63-.37Z" id="el0sew2qwy07e" class="animable" style="transform-origin: 410.64px 267.64px;"></path><path d="M412.21,278.31l-.48-.22,6.43-19.79h0l.65.4h0l.15.33Z" id="el6stdxnn605x" class="animable" style="transform-origin: 415.345px 268.305px;"></path><path d="M421.83,281.88l-1.23-.35,5-17.3Z" id="elnti35othcp" class="animable" style="transform-origin: 423.1px 273.055px;"></path><path d="M427.41,283.14l-.41-.08,6.51-20.43h.31c.17,0,.34,0,.5,0l.37,0Z" id="el6tl5bbvzy3f" class="animable" style="transform-origin: 430.845px 272.885px;"></path><path d="M431.18,283.68c-.43,0-.85-.09-1.27-.16l7.43-21.34c.81-.17,1.27-.32,1.27-.32Z" id="eld7zpxe2kxi7" class="animable" style="transform-origin: 434.26px 272.77px;"></path></g></g><path d="M445,313.75c-.43.09-.85.17-1.26.23-.85.15-1.68.28-2.5.38l-.43.06c-1.81.22-3.57.35-5.28.41l-1.28,0a61.46,61.46,0,0,1-9-.55l-.52-.07c-1.61-.23-3.13-.52-4.55-.84l-.7-.16c-1.24-.29-2.4-.6-3.47-.93l1.18-22.48a60.79,60.79,0,0,1,17.27-1.69l.67.05.21,0c.33,0,.66,0,1,.09,1,.11,2,.25,3,.44.39.08.79.15,1.16.25.75.17,1.48.37,2.2.6l.17.06.5.17h0c.34.13.69.25,1,.39s.74.31,1.09.48Z" style="fill: rgb(10, 11, 44); transform-origin: 430.735px 301.441px;" id="elvq7wq5vm7c9" class="animable"></path><g id="el5tlkhti01oc"><path d="M445,313.75c-.43.09-.85.17-1.26.23-.85.15-1.68.28-2.5.38l-.43.06c-1.81.22-3.57.35-5.28.41l-1.28,0a61.46,61.46,0,0,1-9-.55l-.52-.07c-1.61-.23-3.13-.52-4.55-.84l-.7-.16c-1.24-.29-2.4-.6-3.47-.93l1.18-22.48a60.79,60.79,0,0,1,17.27-1.69l.67.05.21,0c.33,0,.66,0,1,.09,1,.11,2,.25,3,.44.39.08.79.15,1.16.25.75.17,1.48.37,2.2.6l.17.06.5.17h0c.34.13.69.25,1,.39s.74.31,1.09.48Z" style="opacity: 0.3; transform-origin: 430.735px 301.441px;" class="animable"></path></g><g id="elyo8c0vcfjv"><path d="M445.57,290.71a24.13,24.13,0,0,1-15.19,3.61c-9.13-.78-13.13-4.48-13.13-4.48S434.09,285.32,445.57,290.71Z" style="fill: rgb(245, 245, 245); opacity: 0.42; transform-origin: 431.41px 291.249px;" class="animable"></path></g><g id="elgdr0dzug9qd"><g style="opacity: 0.1; transform-origin: 431.053px 290.735px;" class="animable"><path d="M430.62,288.65c-2.26.28-4.54.54-6.76,1a14.41,14.41,0,0,0-1.63.42,2.43,2.43,0,0,0-.36.16c-.06,0-.1.07-.15.1l0,0s0-.05,0-.07a1,1,0,0,0,.22.14l.38.15a22.45,22.45,0,0,0,3.29.75,67.49,67.49,0,0,0,6.77.79c1.14.07,2.27.11,3.4.08a16,16,0,0,0,3.33-.36,6.12,6.12,0,0,0,.76-.24,1.52,1.52,0,0,0,.46-.28,1.19,1.19,0,0,0-.34-.26,4.85,4.85,0,0,0-.73-.31,18.89,18.89,0,0,0-3.29-.72,29.25,29.25,0,0,0-3.37-.27,15.56,15.56,0,0,0-1.68.05,5.23,5.23,0,0,0-1.6.31,1.45,1.45,0,0,0-.33.16c-.12.07-.1.12-.11.05a.51.51,0,0,0,.19.14,3,3,0,0,0,.36.14,9.74,9.74,0,0,0,1.64.35,23.8,23.8,0,0,0,3.38.24,8.47,8.47,0,0,0,1.68-.12,1.69,1.69,0,0,0,.36-.12l0,0s0,0,0,0,0,0,0,0-.07-.06-.13-.08a4.94,4.94,0,0,0-.8-.22c-1.12-.2-2.26-.32-3.39-.44a30.3,30.3,0,0,1,3.42.27,4.33,4.33,0,0,1,.85.19.48.48,0,0,1,.23.14c.05,0,.07.18,0,.22s-.08.08-.12.12a2.13,2.13,0,0,1-.43.17,8.58,8.58,0,0,1-1.73.2,23.44,23.44,0,0,1-3.45-.15,9.45,9.45,0,0,1-1.72-.32,3,3,0,0,1-.44-.16.8.8,0,0,1-.44-.41.46.46,0,0,1,.07-.42.86.86,0,0,1,.22-.21,2.12,2.12,0,0,1,.42-.22,9.35,9.35,0,0,1,3.49-.47,28.59,28.59,0,0,1,3.45.25,19.25,19.25,0,0,1,3.4.72,5.58,5.58,0,0,1,.85.34,2.19,2.19,0,0,1,.42.3.86.86,0,0,1,.2.27.6.6,0,0,1,0,.42.77.77,0,0,1-.08.19.64.64,0,0,1-.1.13,1.18,1.18,0,0,1-.22.19,2.32,2.32,0,0,1-.44.23,4.79,4.79,0,0,1-.86.28,17.14,17.14,0,0,1-3.48.36c-1.15,0-2.3,0-3.45-.12a55.81,55.81,0,0,1-6.82-.89,23.2,23.2,0,0,1-3.35-.86l-.42-.18-.21-.13a.57.57,0,0,1-.21-.27.3.3,0,0,1,.05-.27l.1-.11a1.13,1.13,0,0,1,.22-.14,2.47,2.47,0,0,1,.42-.17,11.62,11.62,0,0,1,1.7-.4A67.87,67.87,0,0,1,430.62,288.65Z" id="ell1ylr26jgj9" class="animable" style="transform-origin: 431.053px 290.735px;"></path></g></g><g id="el7z05hptarh"><g style="opacity: 0.2; transform-origin: 432.54px 302.77px;" class="animable"><path d="M421.61,295.6l-1.36,17.81-.7-.16Z" id="elzz9t01g7z1" class="animable" style="transform-origin: 420.58px 304.505px;"></path><path d="M425.32,314.32l-.52-.07.2-20.8h0l.74.18h0l.24.27Z" id="elocehy1xwj5" class="animable" style="transform-origin: 425.39px 303.885px;"></path><path d="M435.57,314.83l-1.28,0-.45-18Z" id="elkt1sghu26bb" class="animable" style="transform-origin: 434.705px 305.83px;"></path><path d="M441.28,314.36l-.43.06.09-21.45a2.09,2.09,0,0,0,.3-.11,4.52,4.52,0,0,0,.47-.18l.34-.13Z" id="elga0c8w10066" class="animable" style="transform-origin: 441.45px 303.485px;"></path><path d="M445,313.75c-.43.09-.85.17-1.26.23l.68-22.59a12.51,12.51,0,0,0,1.11-.68Z" id="elvzgg4b8ec4" class="animable" style="transform-origin: 444.635px 302.345px;"></path></g></g></g><g id="freepik--character-2--inject-2" class="animable" style="transform-origin: 332.053px 316.836px;"><path d="M379.49,394.85l6.19,6.92a1.75,1.75,0,0,1,.42,1.47l-.88,5.12a1.76,1.76,0,0,0,1.74,2.05h4l7.45-.25a2,2,0,0,0,.34-.05l6.89-1.63a1.76,1.76,0,0,0,1.29-2.19h0a1.76,1.76,0,0,0-1.74-1.28l-2.85.08a1.67,1.67,0,0,1-.85-.2l-6.72-3.48a1.76,1.76,0,0,1-.57-.48L385.59,390a1.75,1.75,0,0,0-2.43-.32l-3.41,2.56A1.75,1.75,0,0,0,379.49,394.85Z" style="fill: rgb(10, 11, 44); transform-origin: 393.009px 399.869px;" id="eloto0bn7s0rm" class="animable"></path><g id="ell79j8mz7g4a"><path d="M379.49,394.85l6.19,6.92a1.75,1.75,0,0,1,.42,1.47l-.88,5.12a1.76,1.76,0,0,0,1.74,2.05h4l7.45-.25a2,2,0,0,0,.34-.05l6.89-1.63a1.76,1.76,0,0,0,1.29-2.19h0a1.76,1.76,0,0,0-1.74-1.28l-2.85.08a1.67,1.67,0,0,1-.85-.2l-6.72-3.48a1.76,1.76,0,0,1-.57-.48L385.59,390a1.75,1.75,0,0,0-2.43-.32l-3.41,2.56A1.75,1.75,0,0,0,379.49,394.85Z" style="opacity: 0.2; transform-origin: 393.009px 399.869px;" class="animable"></path></g><path d="M269.56,377.45l8,14.2a1.93,1.93,0,0,1-.38,2.37l-5.11,4.68a1.9,1.9,0,0,1-1.3.51h-1.4a1.93,1.93,0,0,0-1.93,1.93h0a1.93,1.93,0,0,0,2,1.93l9-.22a2.34,2.34,0,0,0,.45-.07l10.19-2.7a1.93,1.93,0,0,0,.95-3.14l-5.44-6.13a1.88,1.88,0,0,1-.41-.76l-4.89-17.36a1.93,1.93,0,0,0-2.76-1.18l-6.18,3.29A1.93,1.93,0,0,0,269.56,377.45Z" style="fill: rgb(10, 11, 44); transform-origin: 278.976px 387.178px;" id="elz96byo4klz" class="animable"></path><g id="elxmy26d8sgx"><path d="M269.39,377l8.18,14.61a1.93,1.93,0,0,1-.38,2.37l-5.11,4.68a1.9,1.9,0,0,1-1.3.51h-1.4a1.93,1.93,0,0,0-1.93,1.93h0a1.93,1.93,0,0,0,2,1.93l9-.22a2.34,2.34,0,0,0,.45-.07l10.19-2.7a1.93,1.93,0,0,0,.95-3.14l-5.44-6.13a1.88,1.88,0,0,1-.41-.76l-4.21-16Z" style="opacity: 0.2; transform-origin: 278.986px 388.521px;" class="animable"></path></g><path d="M272.2,386.23,285.09,384c2.13-.38,1.82-2.42,1.57-4.57-5.08-44.08,9.36-44.41,34.25-57.06l-14-25c-36.23,37.28-48.45,28-37.24,88C269.83,386.28,271.26,386.39,272.2,386.23Z" style="fill: rgb(10, 11, 44); transform-origin: 293.283px 341.831px;" id="ellgk0z7509qs" class="animable"></path><path d="M316.49,319.94c20.82,8.93,41.72,51.27,56.75,74.72a6.11,6.11,0,0,0,8.53,1.8l5.37-3.59a6.09,6.09,0,0,0,2-7.95c-13-24-35.45-73.54-56.68-87.46Z" style="fill: rgb(10, 11, 44); transform-origin: 353.176px 347.47px;" id="eloj9wofi7tah" class="animable"></path><polygon points="307.21 295.76 302.61 318.31 343.94 323.21 331.31 294.9 307.21 295.76" style="fill: rgb(10, 11, 44); transform-origin: 323.275px 309.055px;" id="els6aymx5p0z" class="animable"></polygon><g id="elqcdkuce0fw"><path d="M320.34,303.2a45.55,45.55,0,0,1-6.84,15.46c1.1-.75,2.12,1.41,3.9.8,1.65-3.23,2.65-8.63,3.47-14.63-.17,6.94.15,13.16,2,17.17.34-.65,2.25.29,3.84,0-3.34-4.75-4.5-11.48-5-18.8Z" style="opacity: 0.2; transform-origin: 320.105px 312.629px;" class="animable"></path></g><g id="el8n6h4dtf6fi"><path d="M302.61,301.73c12.78,2.3,22.92,1.67,34.95-.28a26.64,26.64,0,0,0-5.11-4l-25.56-.14Z" style="opacity: 0.3; transform-origin: 320.085px 300.256px;" class="animable"></path></g><polygon points="378.46 298.84 380.61 293.56 385.89 291.41 380.61 289.26 378.46 283.98 376.31 289.26 371.02 291.41 376.31 293.56 378.46 298.84" id="el4p6v8p6d3zl" class="animable" style="transform-origin: 378.455px 291.41px;"></polygon><g id="eliucyaq7mgtj"><polygon points="378.46 298.84 380.61 293.56 385.89 291.41 380.61 289.26 378.46 283.98 376.31 289.26 371.02 291.41 376.31 293.56 378.46 298.84" style="fill: rgb(255, 255, 255); opacity: 0.5; transform-origin: 378.455px 291.41px;" class="animable"></polygon></g><circle cx="378.46" cy="291.41" r="1.23" id="el48n52gcka2e" class="animable" style="transform-origin: 378.46px 291.41px;"></circle><g id="el10mro3e4wu7c"><path d="M378.46,297.71l1.82-4.48,4.47-1.82-4.44.76a1.24,1.24,0,0,1-.92.95Z" style="fill: rgb(245, 245, 245); opacity: 0.42; transform-origin: 381.605px 294.56px;" class="animable"></path></g><path d="M332.17,248.57c25-1.51,35.31,10,45,22.84a2.86,2.86,0,0,1-.48,4l-.48.39a5,5,0,0,1-6.74-.41c-8.08-8.55-19.4-13.93-37.33-12.79Z" style="fill: rgb(10, 11, 44); transform-origin: 354.957px 262.675px;" id="elc4a5zks52xw" class="animable"></path><path d="M302.43,246.86c.37-.08,47.24,48.52,56.44,58.06a1.11,1.11,0,0,1-.68,1.86l-2.86.32a7.5,7.5,0,0,1-6.21-2.22l-51.56-53Z" style="fill: rgb(38, 50, 56); transform-origin: 328.364px 277.003px;" id="elvcz15vbftr9" class="animable"></path><polygon points="301.93 247.36 298.45 250.32 279.64 230.55 282.78 227.83 301.93 247.36" style="fill: rgb(38, 50, 56); transform-origin: 290.785px 239.075px;" id="elia7m4v7gcz9" class="animable"></polygon><polygon points="305.12 242.81 307.83 245.93 297.09 256.72 294.2 253.39 305.12 242.81" style="fill: rgb(38, 50, 56); transform-origin: 301.015px 249.765px;" id="el13wnlr96gsj" class="animable"></polygon><g id="elv0urlw0qk5b"><polygon points="304.71 249.07 305.71 250.08 300.75 255.12 299.73 254.08 304.71 249.07" style="opacity: 0.2; transform-origin: 302.72px 252.095px;" class="animable"></polygon></g><g id="elvsdwfcuvh4h"><polygon points="300.61 246.19 301.19 246.61 297.93 249.77 297.43 249.24 300.61 246.19" style="opacity: 0.2; transform-origin: 299.31px 247.98px;" class="animable"></polygon></g><path d="M296.19,258.45l8.89,35.85a6,6,0,0,0,5.93,4.54l18.44-.47a5.94,5.94,0,0,0,5.79-5.76L338,254.53a5.93,5.93,0,0,0-6.47-6.09l-30.13,2.7A5.94,5.94,0,0,0,296.19,258.45Z" style="fill: rgb(10, 11, 44); transform-origin: 317.013px 273.628px;" id="el4rxnqvubms" class="animable"></path><g id="eld26albjsoy8"><path d="M296.19,258.45l8.89,35.85a6,6,0,0,0,5.93,4.54l18.44-.47a5.94,5.94,0,0,0,5.79-5.76L338,254.53a5.93,5.93,0,0,0-6.47-6.09l-30.13,2.7A5.94,5.94,0,0,0,296.19,258.45Z" style="opacity: 0.2; transform-origin: 317.013px 273.628px;" class="animable"></path></g><g id="el9mq69k6n17d"><path d="M317.27,247.72a7.09,7.09,0,0,0,5.74,1.69,9.54,9.54,0,0,1-.26-1.51A8.05,8.05,0,0,1,317.27,247.72Z" style="opacity: 0.2; transform-origin: 320.14px 248.604px;" class="animable"></path></g><path d="M263.54,253.13l4.06-.84a3,3,0,0,1,3.53,2.6c3,14.9,12.24,12.33,27.08-2.47a2.92,2.92,0,0,1,2.13-.84c6.71.17,8.56,4.08,5.77,11.54a3.12,3.12,0,0,1-.69,1.07c-22.61,23.35-38,16.92-43.95-7.86C260.87,255,262.08,253.43,263.54,253.13Z" style="fill: rgb(10, 11, 44); transform-origin: 284.338px 265.14px;" id="ell2zaqexv15b" class="animable"></path><path d="M264.93,255h1.72a2.08,2.08,0,0,0,2-2.61L266.42,244a2.08,2.08,0,0,1,.53-2h0a2.07,2.07,0,0,0,.61-1.61l-.25-3.46a2.08,2.08,0,0,0-1.76-1.91l-.94-.14a2.08,2.08,0,0,0-2.29,1.42l-.9,2.82a2.08,2.08,0,0,0,.21,1.72l.92,1.51a2,2,0,0,1,.31,1.08v9.46A2.08,2.08,0,0,0,264.93,255Z" style="fill: rgb(10, 11, 44); transform-origin: 265.02px 244.928px;" id="eljhsnwn3mb3" class="animable"></path><g id="eld6pykcng5bs"><path d="M264.93,255h1.72a2.08,2.08,0,0,0,2-2.61L266.42,244a2.08,2.08,0,0,1,.53-2h0a2.07,2.07,0,0,0,.61-1.61l-.25-3.46a2.08,2.08,0,0,0-1.76-1.91l-.94-.14a2.08,2.08,0,0,0-2.29,1.42l-.9,2.82a2.08,2.08,0,0,0,.21,1.72l.92,1.51a2,2,0,0,1,.31,1.08v9.46A2.08,2.08,0,0,0,264.93,255Z" style="opacity: 0.2; transform-origin: 265.02px 244.928px;" class="animable"></path></g><g id="eldt1m33nymz7"><path d="M299.05,270.25a74.15,74.15,0,0,0,6.79-6.59l-4.51,16Z" style="opacity: 0.2; transform-origin: 302.445px 271.66px;" class="animable"></path></g><g id="elg66e8ulncz4"><path d="M337.79,262.42l.12-4.05,9,4.9A56.07,56.07,0,0,0,337.79,262.42Z" style="opacity: 0.3; transform-origin: 342.35px 260.82px;" class="animable"></path></g><g id="elh5944zstbag"><path d="M322.67,269.06c6.57,14.47,15,23.91,4.4,29.37l.93,0c10.22-5,2.84-14.5-5.11-30.3Z" style="opacity: 0.2; transform-origin: 327.832px 283.28px;" class="animable"></path></g><path d="M322.67,269.06s-14.55-13.95-12.91-18.1c0,0,2.3-.18,3.26-5.46a34.41,34.41,0,0,0,.36-7.65c0-.3,0-.61-.05-.93l9.64,2c-.27,1.05-.49,2-.66,2.88-1.25,6.29,0,8.52,1.72,10.69,0,0,0,0,0,0C327,256.19,322.67,269.06,322.67,269.06Z" style="fill: rgb(228, 137, 123); transform-origin: 317.351px 252.99px;" id="elr329u43kt9" class="animable"></path><path d="M260.54,242.69l.29-5.55c.75-2,4.2-3.5,4.2-3.5.5,0,3.77,3.21,3.58,4l-.37,5.31a2.05,2.05,0,0,1-1.67.85h-4.23A2.06,2.06,0,0,1,260.54,242.69Z" style="fill: rgb(228, 137, 123); transform-origin: 264.579px 238.72px;" id="elcl0qyv2evj" class="animable"></path><path d="M377,278.8l-1.29,2.78a1.14,1.14,0,0,0,0,.87l2.07,5.1c2.52,2.61,8.69-1.16,8.57-4.26,0,0-2.29-4.52-4.23-5.32l-2.66-.8Z" style="fill: rgb(228, 137, 123); transform-origin: 380.988px 282.797px;" id="elcs27fqdnmvb" class="animable"></path><path d="M373.29,276.54l3.4,3.66a2.39,2.39,0,0,1,.63,1.6v.77a2.36,2.36,0,0,0,.43,1.36l1.77,2.5a2.36,2.36,0,0,0,3.12.67l1.17-.7a2.35,2.35,0,0,0,1.11-2.48l-.64-3.17a2.36,2.36,0,0,0-1.5-1.75l-.47-.17a2.24,2.24,0,0,1-.9-.59l-4.69-4.92a2.35,2.35,0,0,0-2.45-.61h0A2.35,2.35,0,0,0,373.29,276.54Z" style="fill: rgb(10, 11, 44); transform-origin: 378.813px 280.007px;" id="elk0xycivzygc" class="animable"></path><g id="elav4dyblzfzl"><path d="M373.29,276.54l3.4,3.66a2.39,2.39,0,0,1,.63,1.6v.77a2.36,2.36,0,0,0,.43,1.36l1.77,2.5a2.36,2.36,0,0,0,3.12.67l1.17-.7a2.35,2.35,0,0,0,1.11-2.48l-.64-3.17a2.36,2.36,0,0,0-1.5-1.75l-.47-.17a2.24,2.24,0,0,1-.9-.59l-4.69-4.92a2.35,2.35,0,0,0-2.45-.61h0A2.35,2.35,0,0,0,373.29,276.54Z" style="opacity: 0.2; transform-origin: 378.813px 280.007px;" class="animable"></path></g><polygon points="265.02 241.55 267.31 235.92 272.94 233.64 267.31 231.35 265.02 225.72 262.74 231.35 257.11 233.64 262.74 235.92 265.02 241.55" id="elysdv35o286" class="animable" style="transform-origin: 265.025px 233.635px;"></polygon><g id="el4kkcgxmxkuw"><polygon points="265.02 241.55 267.31 235.92 272.94 233.64 267.31 231.35 265.02 225.72 262.74 231.35 257.11 233.64 262.74 235.92 265.02 241.55" style="fill: rgb(255, 255, 255); opacity: 0.5; transform-origin: 265.025px 233.635px;" class="animable"></polygon></g><path d="M266.33,233.64a1.31,1.31,0,1,1-1.3-1.31A1.3,1.3,0,0,1,266.33,233.64Z" id="el4ugs0hyiv1w" class="animable" style="transform-origin: 265.02px 233.64px;"></path><g id="elropeo1k5v7"><path d="M265,240.34l1.93-4.77,4.77-1.93-4.74.8a1.32,1.32,0,0,1-1,1Z" style="fill: rgb(245, 245, 245); opacity: 0.42; transform-origin: 268.35px 236.99px;" class="animable"></path></g><g id="elgdf2hg6krmq"><path d="M301.27,332.08c-9.86,4.87-17.29,11.4-25.57,15,5.07-.84,7-1.28,9.43-1.89-.23,6.52-.07,5.87.82,11.78C287.29,341.94,293.8,336.71,301.27,332.08Z" style="opacity: 0.2; transform-origin: 288.485px 344.525px;" class="animable"></path></g><g id="el0qw1g4gnu9bp"><path d="M340.94,343.09c7.17,10.13,13.63,20.08,19.15,29.79-2.73-5.26-5.73-10.86-6.4-13.54,1.86,1,4.5,1.35,7.25,1.55C354,357.54,347.43,350.86,340.94,343.09Z" style="opacity: 0.2; transform-origin: 350.94px 357.985px;" class="animable"></path></g><g id="elckseaabxhqs"><path d="M324,252.45a4.34,4.34,0,0,1-4.68.43A11.71,11.71,0,0,1,313,245.5a34.41,34.41,0,0,0,.36-7.65l8.93,3.91C321.06,248.05,322.29,250.28,324,252.45Z" style="opacity: 0.2; transform-origin: 318.5px 245.611px;" class="animable"></path></g><path d="M325.4,224.65a8.67,8.67,0,0,0-11.89,2.74,8.45,8.45,0,0,0-1.26,3.74c-.66,6.24-1.36,9.86,1.25,13.55,3.94,5.55,12.1,4,14.63-1.94C330.4,237.42,331.08,228.11,325.4,224.65Z" style="fill: rgb(228, 137, 123); transform-origin: 320.718px 235.735px;" id="elbr5wk9rp0db" class="animable"></path><path d="M321.47,234.49c-.12.49.11.95.45,1s.67-.3.75-.8-.12-1-.45-1S321.55,234,321.47,234.49Z" style="fill: rgb(38, 50, 56); transform-origin: 322.063px 234.592px;" id="el1x68pv2wmqd" class="animable"></path><path d="M327.2,235.43c-.12.5.12,1,.45,1s.67-.31.75-.81-.11-.95-.45-1S327.29,234.93,327.2,235.43Z" style="fill: rgb(38, 50, 56); transform-origin: 327.793px 235.523px;" id="el8k7ileu8a0k" class="animable"></path><path d="M325.34,235.38a18.44,18.44,0,0,0,1.7,4.71,2.93,2.93,0,0,1-2.54-.1Z" style="fill: rgb(222, 86, 82); transform-origin: 325.77px 237.856px;" id="elxrln12hi47d" class="animable"></path><path d="M321.35,231.78a.39.39,0,0,0,.37.08,3.25,3.25,0,0,1,2.59.31.34.34,0,0,0,.48,0,.35.35,0,0,0-.15-.46h0a4,4,0,0,0-3.27-.42.25.25,0,0,0-.14.4A.37.37,0,0,0,321.35,231.78Z" style="fill: rgb(38, 50, 56); transform-origin: 323px 231.692px;" id="ell7j9r26h78p" class="animable"></path><path d="M329.93,233a.27.27,0,0,0,.17-.06.3.3,0,0,0,0-.43,3,3,0,0,0-2.68-.71.31.31,0,0,0-.21.37.3.3,0,0,0,.37.21h0a2.38,2.38,0,0,1,2.09.59A.3.3,0,0,0,329.93,233Z" style="fill: rgb(38, 50, 56); transform-origin: 328.696px 232.372px;" id="eltz7oggmvx2i" class="animable"></path><path d="M316.36,230.2l13.18,1c-.51-2.73-1.63-5.25-4-6.68a8.94,8.94,0,0,0-12.08,2.83,9.56,9.56,0,0,0-.53,1h0a8.27,8.27,0,0,0-.52,1.52h0c-.06.25-.1.51-.14.77l-6-4.6-1.14,2.46,7.09,2.81c0,.14,0,.26,0,.4l-7.05-1.09-.11,1.11,7.12.35c0,.17,0,.35-.05.52-.06.48-.11.95-.16,1.4v.08h0c-.5,4.64-.63,7.7,1.58,10.82,3.93,5.55,12.1,4,14.62-1.93a21.21,21.21,0,0,0,1.27-4.33l-13.88-1.48Z" style="fill: rgb(10, 11, 44); transform-origin: 317.3px 235.8px;" id="elxk82fifp4l" class="animable"></path></g><g id="freepik--wood-1--inject-2" class="animable" style="transform-origin: 95.785px 348.24px;"><polygon points="90.14 299.48 85.19 302.99 79.21 301.89 82.72 306.85 81.62 312.82 86.58 309.31 92.55 310.41 89.04 305.46 90.14 299.48" id="eltcuglt5njb" class="animable" style="transform-origin: 85.88px 306.15px;"></polygon><g id="el8iudq3bxv9"><polygon points="90.14 299.48 85.19 302.99 79.21 301.89 82.72 306.85 81.62 312.82 86.58 309.31 92.55 310.41 89.04 305.46 90.14 299.48" style="fill: rgb(255, 255, 255); opacity: 0.5; transform-origin: 85.88px 306.15px;" class="animable"></polygon></g><path d="M84.78,305.45a1.3,1.3,0,1,1,.4,1.8A1.3,1.3,0,0,1,84.78,305.45Z" id="elyvcmsxldeh" class="animable" style="transform-origin: 85.8747px 306.151px;"></path><g id="elzmssy40ifa8"><path d="M89.49,300.5l-4.2,3-5.06-.94,4.43,1.87a1.33,1.33,0,0,1,1.37-.33Z" style="fill: rgb(245, 245, 245); opacity: 0.42; transform-origin: 84.86px 302.465px;" class="animable"></path></g><polygon points="114.17 321.82 108.1 321.94 103.77 317.68 103.9 323.75 99.63 328.08 105.7 327.95 110.03 332.22 109.91 326.14 114.17 321.82" id="elzrd9rvvn0oi" class="animable" style="transform-origin: 106.9px 324.95px;"></polygon><g id="elc28bzvb69gv"><polygon points="114.17 321.82 108.1 321.94 103.77 317.68 103.9 323.75 99.63 328.08 105.7 327.95 110.03 332.22 109.91 326.14 114.17 321.82" style="fill: rgb(255, 255, 255); opacity: 0.5; transform-origin: 106.9px 324.95px;" class="animable"></polygon></g><path d="M106.39,323.75a1.31,1.31,0,1,1-.69,1.71A1.31,1.31,0,0,1,106.39,323.75Z" id="elyhao41dxt3g" class="animable" style="transform-origin: 106.908px 324.953px;"></path><g id="el2kesmaoxk41"><path d="M113.06,322.3l-5.15.1-3.66-3.61,2.61,4a1.34,1.34,0,0,1,1.32.5Z" style="fill: rgb(245, 245, 245); opacity: 0.42; transform-origin: 108.655px 321.04px;" class="animable"></path></g><path d="M118.92,396.17c-.51.28-1,.54-1.53.79L46.68,336.37s.2-.91.64-2.43a67.91,67.91,0,0,1,2.53-7.06c.37-.86.76-1.75,1.2-2.66,2.92-6.09,7.53-13.08,14.39-17.35.52-.33,1-.63,1.6-.92a25.94,25.94,0,0,1,9.25-2.9l68.6,62.28S134.94,387.42,118.92,396.17Z" style="fill: rgb(10, 11, 44); transform-origin: 95.785px 350.005px;" id="elpcp66lnsfc" class="animable"></path><g id="elvr0atnqa5"><path d="M117.39,397a35.66,35.66,0,0,1,10.08-20.79c9.44-9.74,17.42-10.84,17.42-10.84S134.31,388.84,117.39,397Z" style="fill: rgb(245, 245, 245); opacity: 0.42; transform-origin: 131.14px 381.185px;" class="animable"></path></g><g id="el7ycw29m7frv"><g style="opacity: 0.1; transform-origin: 130.564px 380.295px;" class="animable"><path d="M133.74,381.76c1.8-2.86,3.62-5.71,5.18-8.7a18.29,18.29,0,0,0,1-2.26,3.27,3.27,0,0,0,.16-.57,2.42,2.42,0,0,0,0-.25.28.28,0,0,1,0-.09s0,.08.06.09a1.51,1.51,0,0,0-.37.13c-.17.08-.35.18-.52.28a34.88,34.88,0,0,0-4,3.07,100,100,0,0,0-7.24,7c-1.14,1.23-2.24,2.5-3.27,3.82a23.78,23.78,0,0,0-2.7,4.15,7.88,7.88,0,0,0-.44,1.1,2.09,2.09,0,0,0-.11.79,2,2,0,0,0,.61-.14,7.65,7.65,0,0,0,1-.56,27.2,27.2,0,0,0,3.89-3.09,39.39,39.39,0,0,0,3.47-3.61c.54-.64,1.06-1.29,1.53-2a8.36,8.36,0,0,0,1.13-2.12,3.22,3.22,0,0,0,.13-.54c0-.19,0-.22,0-.17a.78.78,0,0,0-.33.09,4.29,4.29,0,0,0-.51.28,16.38,16.38,0,0,0-1.93,1.55,34.88,34.88,0,0,0-3.44,3.65,12.12,12.12,0,0,0-1.43,2,2.54,2.54,0,0,0-.21.53s0,.09,0,.07,0,0,0,0h0l.21-.08a7.4,7.4,0,0,0,1-.72c1.28-1.09,2.49-2.28,3.68-3.47a48.63,48.63,0,0,1-3.51,3.67,6.8,6.8,0,0,1-1,.8.71.71,0,0,1-.38.13c-.06,0-.26-.08-.27-.18a.42.42,0,0,1,0-.24,2.68,2.68,0,0,1,.21-.66,12.86,12.86,0,0,1,1.38-2.17,36.14,36.14,0,0,1,3.4-3.81,15.93,15.93,0,0,1,2-1.67,3.93,3.93,0,0,1,.6-.35,1.22,1.22,0,0,1,.88-.13.68.68,0,0,1,.42.48,1.43,1.43,0,0,1,0,.44,4.33,4.33,0,0,1-.14.7,14,14,0,0,1-2.73,4.43,44.21,44.21,0,0,1-3.52,3.72,29.27,29.27,0,0,1-4,3.23,8,8,0,0,1-1.19.64,3.07,3.07,0,0,1-.74.21,1.39,1.39,0,0,1-.49,0,1,1,0,0,1-.52-.34,2.54,2.54,0,0,1-.16-.28,2,2,0,0,1,0-.24,1,1,0,0,1,0-.43,4,4,0,0,1,.14-.72,9,9,0,0,1,.49-1.25,24.39,24.39,0,0,1,2.85-4.31c1.06-1.34,2.19-2.61,3.35-3.85a84.25,84.25,0,0,1,7.41-7,35.64,35.64,0,0,1,4.13-3,4.8,4.8,0,0,1,.6-.3,2.2,2.2,0,0,1,.34-.13.77.77,0,0,1,.5,0,.46.46,0,0,1,.27.31l0,.22a1.48,1.48,0,0,1,0,.38,4.47,4.47,0,0,1-.2.65,18.3,18.3,0,0,1-1.13,2.31C137.63,376.23,135.73,379,133.74,381.76Z" id="elzt0b7m9renb" class="animable" style="transform-origin: 130.564px 380.295px;"></path></g></g><g id="eliu878kd9ode"><g style="opacity: 0.2; transform-origin: 90.105px 351.48px;" class="animable"><path d="M113.76,347.88l-48.32-41c.52-.33,1-.63,1.6-.92Z" id="elq0je48wbieb" class="animable" style="transform-origin: 89.6px 326.92px;"></path><path d="M133.53,370.84c-.31.21-.61.44-.92.68h-.54L83.26,329Z" id="el2hbvlzui4n8" class="animable" style="transform-origin: 108.395px 350.26px;"></path><path d="M99.73,360.18l-49.88-33.3c.37-.86.76-1.75,1.2-2.66Z" id="elupjowdor7ia" class="animable" style="transform-origin: 74.79px 342.2px;"></path><path d="M118.57,391.21l-39.3-34.52,39.85,32.84C118.91,390.12,118.73,390.68,118.57,391.21Z" id="el6yf98wom1f" class="animable" style="transform-origin: 99.195px 373.95px;"></path><path d="M117.39,397,46.68,336.37s.2-.91.64-2.43l70.32,61.11A15.38,15.38,0,0,0,117.39,397Z" id="eltkb0dch8yyg" class="animable" style="transform-origin: 82.16px 365.47px;"></path></g></g><path d="M66.85,351.45l-10.56,4.73s-.63,1.29,1.81,4.05l16.44-1.11S75,354.23,66.85,351.45Z" style="fill: rgb(10, 11, 44); transform-origin: 65.3808px 355.84px;" id="el21ys3r0wj7i" class="animable"></path><g id="elhbrswzxht"><path d="M74.53,359.12,58.1,360.23c-2.44-2.75-1.81-4.05-1.81-4.05l10.56-4.73C75,354.23,74.53,359.12,74.53,359.12Z" style="opacity: 0.1; transform-origin: 65.376px 355.84px;" class="animable"></path></g><g id="eloz05gbgur7r"><path d="M58.1,360.23c-2.44-2.75-1.81-4.05-1.81-4.05S59.28,358.27,58.1,360.23Z" style="fill: rgb(245, 245, 245); opacity: 0.42; transform-origin: 57.2963px 358.205px;" class="animable"></path></g><polygon points="83.02 321.09 85.19 322.75 87.29 321.7 93.02 323.71 90.31 318.27 92.31 312.54 86.88 315.25 81.14 313.25 83.86 318.68 83.02 321.09" id="elzwq497fx3x" class="animable" style="transform-origin: 87.08px 318.125px;"></polygon><g id="eltza6xv46d4q"><polygon points="83.02 321.09 85.19 322.75 87.29 321.7 93.02 323.71 90.31 318.27 92.31 312.54 86.88 315.25 81.14 313.25 83.86 318.68 83.02 321.09" style="fill: rgb(255, 255, 255); opacity: 0.5; transform-origin: 87.08px 318.125px;" class="animable"></polygon></g><path d="M88.06,319.34A1.3,1.3,0,1,1,88,317.5,1.31,1.31,0,0,1,88.06,319.34Z" id="elwi9pdk45azs" class="animable" style="transform-origin: 87.1104px 318.45px;"></path><g id="elrrmz6y20lo"><path d="M84.78,322.45l2.48-1.24,4.85,1.7L88,320.39a1.36,1.36,0,0,1-1.41.11l-2.2,1.67Z" style="fill: rgb(245, 245, 245); opacity: 0.42; transform-origin: 88.25px 321.65px;" class="animable"></path></g></g><g id="freepik--character-1--inject-2" class="animable animator-active" style="transform-origin: 209.397px 256.735px;"><path d="M138.73,405.11h-12a2.46,2.46,0,0,1-.4.39L119,411.12a2.56,2.56,0,0,1-1.79.52l-1.86-.16a2.57,2.57,0,1,0-.4,5.13l12,.76a2.42,2.42,0,0,0,.6,0L141.38,415a2.58,2.58,0,0,0,1.63-4.07Z" style="fill: rgb(38, 50, 56); transform-origin: 128.042px 411.249px;" id="elnqscdi66bm" class="animable"></path><g id="elbiyqm2rjdst"><path d="M138.73,405.11h-12a2.46,2.46,0,0,1-.4.39L119,411.12a2.56,2.56,0,0,1-1.79.52l-1.86-.16a2.57,2.57,0,1,0-.4,5.13l12,.76a2.42,2.42,0,0,0,.6,0L141.38,415a2.58,2.58,0,0,0,1.63-4.07Z" style="opacity: 0.2; transform-origin: 128.042px 411.249px;" class="animable"></path></g><polygon points="129.69 387.18 126.52 407.27 138.78 407.27 143.17 389.29 129.69 387.18" style="fill: rgb(38, 50, 56); transform-origin: 134.845px 397.225px;" id="el9oils9sftk" class="animable"></polygon><g id="elur49va9uzff"><polygon points="129.69 387.18 126.52 407.27 138.78 407.27 143.17 389.29 129.69 387.18" style="opacity: 0.2; transform-origin: 134.845px 397.225px;" class="animable"></polygon></g><path d="M133,225.75l1.66-1.76a6,6,0,0,1,9.31.61c8.49,11.71,14.82,3.9,23.15-23.77a3.71,3.71,0,0,1,6.83-.69l5.95,11.09c-9.44,37.08-23,43.62-46.88,22.29C130.8,231.53,131,227.94,133,225.75Z" style="fill: rgb(38, 50, 56); transform-origin: 155.663px 221.897px;" id="elolmlzhfayd" class="animable"></path><g id="eld1f9lourckj"><path d="M148,228.77c4.37,4.78,11.61,10.36,17.69,12.95,2.36-2,6.42-8.95,9.7-15.87-4.94-1-9.64-3.84-14.16-8C157.75,225,153.9,232.83,148,228.77Z" style="opacity: 0.2; transform-origin: 161.695px 229.785px;" class="animable"></path></g><path d="M266.41,397.1l20.39,7.56a2.58,2.58,0,0,1,1.66,2.74l-1.17,9.17a2.51,2.51,0,0,1-.89,1.64L285,419.42a2.57,2.57,0,0,0-.3,3.63h0a2.57,2.57,0,0,0,3.67.26l9-8a3.39,3.39,0,0,0,.4-.45l8-11.54a2.57,2.57,0,0,0-1.74-4l-10.82-1.55a2.78,2.78,0,0,1-1.08-.41L272.2,383.88a2.58,2.58,0,0,0-3.83,1.18l-3.46,8.68A2.56,2.56,0,0,0,266.41,397.1Z" style="fill: rgb(38, 50, 56); transform-origin: 285.474px 403.701px;" id="eln49qmckqxw" class="animable"></path><g id="el0qc8p7ojp2c"><path d="M266.41,397.1l20.39,7.56a2.58,2.58,0,0,1,1.66,2.74l-1.17,9.17a2.51,2.51,0,0,1-.89,1.64L285,419.42a2.57,2.57,0,0,0-.3,3.63h0a2.57,2.57,0,0,0,3.67.26l9-8a3.39,3.39,0,0,0,.4-.45l8-11.54a2.57,2.57,0,0,0-1.74-4l-10.82-1.55a2.78,2.78,0,0,1-1.08-.41L272.2,383.88a2.58,2.58,0,0,0-3.83,1.18l-3.46,8.68A2.56,2.56,0,0,0,266.41,397.1Z" style="opacity: 0.2; transform-origin: 285.474px 403.701px;" class="animable"></path></g><path d="M179.91,190.36c-.14.44,55.29,63.07,66.17,75.36a1.37,1.37,0,0,0,2.37-.65l.68-3.51a9.24,9.24,0,0,0-2.14-7.88l-60.44-68.85Z" style="fill: rgb(38, 50, 56); transform-origin: 214.605px 225.505px;" id="elyqb1h6kpj9" class="animable"></path><path d="M206.31,297.39l29.33-22.18c5.19,42.33,13.84,81.65,44.49,99.72,6.2,3.66,7.22,14.76,2,20.44l-8.45,9.14c-2.82,3-6.76,3.65-10,1.44C227.63,381.3,218.08,339.91,206.31,297.39Z" style="fill: rgb(38, 50, 56); transform-origin: 245.899px 341.236px;" id="el4heqx6dhcps" class="animable"></path><path d="M126.91,392.65l14.52,2.65c4.48.82,6.4-4.52,7.15-10.38,7.43-58.38,5.3-55.87,60.12-78.81l-8.28-32.21c-73.91,37.74-70.73,29.39-79,111.54A6.91,6.91,0,0,0,126.91,392.65Z" style="fill: rgb(38, 50, 56); transform-origin: 165.053px 334.642px;" id="elw5nds2prby" class="animable"></path><path d="M131.93,227.16l-4.65-7a3.55,3.55,0,0,0-1.71-1.37l-3.64-1.4a3.73,3.73,0,0,1-.63-.32l-1.56-1a3.6,3.6,0,0,1-1-5.11l1.46-2.07a3.58,3.58,0,0,1,3.81-1.42l3.12.78a3.58,3.58,0,0,1,2.54,2.38l.67,2.05a3.49,3.49,0,0,0,.54,1.05L137.8,223a3.6,3.6,0,0,1,0,4.3h0A3.6,3.6,0,0,1,131.93,227.16Z" style="fill: rgb(38, 50, 56); transform-origin: 128.296px 218.054px;" id="eltx7y1hewqu" class="animable"></path><g id="eldg0brzdv7m8"><path d="M131.93,227.16l-4.65-7a3.55,3.55,0,0,0-1.71-1.37l-3.64-1.4a3.73,3.73,0,0,1-.63-.32l-1.56-1a3.6,3.6,0,0,1-1-5.11l1.46-2.07a3.58,3.58,0,0,1,3.81-1.42l3.12.78a3.58,3.58,0,0,1,2.54,2.38l.67,2.05a3.49,3.49,0,0,0,.54,1.05L137.8,223a3.6,3.6,0,0,1,0,4.3h0A3.6,3.6,0,0,1,131.93,227.16Z" style="opacity: 0.2; transform-origin: 128.296px 218.054px;" class="animable"></path></g><path d="M124.9,219.09l7.87-6.27c.84-1.34-10.62-9.61-11.66-9.06,0,0-5.18,10.35-4.79,11.35C116.32,215.11,123.91,219.2,124.9,219.09Z" style="fill: rgb(255, 195, 189); transform-origin: 124.557px 211.413px;" id="elnw1frsek21" class="animable"></path><g id="elxm13csxrj1"><path d="M134.66,185.79c.46-.09,28.24-79,33.69-94.45a1.37,1.37,0,0,0-1.72-1.76l-3.39,1.11a9.28,9.28,0,0,0-5.85,5.7l-30.78,86.29Z" style="fill: rgb(224, 224, 224); opacity: 0.5; transform-origin: 147.52px 137.651px;" class="animable"></path></g><g id="elhh6pqudpzan"><polygon points="136.09 182.14 136.7 180.48 128.51 177.36 127.9 179.06 136.09 182.14" style="opacity: 0.2; transform-origin: 132.3px 179.75px;" class="animable"></polygon></g><g id="elic1t0zn5h78"><path d="M132.44,174.77l27.9-78.16a.91.91,0,0,1,.32-.43l3.51-2.55a.89.89,0,0,0,.16-1.29h0a.89.89,0,0,0-1.25-.13L159,95.52a.86.86,0,0,0-.28.4l-28.09,79.2.73.21A.89.89,0,0,0,132.44,174.77Z" style="opacity: 0.2; transform-origin: 147.583px 133.688px;" class="animable"></path></g><polygon points="133.84 185.5 128.4 183.95 115.28 221.51 120.21 222.97 133.84 185.5" style="fill: rgb(38, 50, 56); transform-origin: 124.56px 203.46px;" id="elsuv9s7qpixm" class="animable"></polygon><polygon points="139.78 188.98 141.23 184.07 123.57 177.44 122.03 182.68 139.78 188.98" style="fill: rgb(38, 50, 56); transform-origin: 131.63px 183.21px;" id="elxqww76h0vuk" class="animable"></polygon><g id="ellim5tocju6"><polygon points="132.95 187.49 133.4 186.72 128.09 184.84 127.8 185.69 132.95 187.49" style="opacity: 0.2; transform-origin: 130.6px 186.165px;" class="animable"></polygon></g><path d="M132,202.74a3.19,3.19,0,0,1-3.65.43L119,198.51c-.85-.56,5.51-8.11,7.35-10a1.64,1.64,0,0,1,1.51-.48l7.92,5.17a3.34,3.34,0,0,1,.75,4.92A46.67,46.67,0,0,1,132,202.74Z" style="fill: rgb(255, 195, 189); transform-origin: 128.107px 195.777px;" id="elhg7cvf1muuo" class="animable"></path><path d="M137.51,211.8l-7-8.22a4.31,4.31,0,0,0-2-1.31l-1.94-.63a4.32,4.32,0,0,1-1.82-1.15l-1.34-1.41a4.35,4.35,0,0,1-.1-5.87l1.17-1.34a4.36,4.36,0,0,1,5-1.1l4.33,1.91a4.36,4.36,0,0,1,2.44,2.81l.27,1a4.39,4.39,0,0,0,.85,1.63l6.76,8.07a4.36,4.36,0,0,1-.92,6.42h0A4.37,4.37,0,0,1,137.51,211.8Z" style="fill: rgb(38, 50, 56); transform-origin: 133.682px 201.863px;" id="elfm9nzp7nfor" class="animable"></path><g id="ele83u945ap6"><path d="M137.51,211.8l-7-8.22a4.31,4.31,0,0,0-2-1.31l-1.94-.63a4.32,4.32,0,0,1-1.82-1.15l-1.34-1.41a4.35,4.35,0,0,1-.1-5.87l1.19-1.36a4.32,4.32,0,0,1,5-1.1l4.41,1.95a4.24,4.24,0,0,1,2.37,2.74l.29,1a4.39,4.39,0,0,0,.85,1.63l6.76,8.07a4.36,4.36,0,0,1-.92,6.42h0A4.37,4.37,0,0,1,137.51,211.8Z" style="opacity: 0.2; transform-origin: 133.707px 201.844px;" class="animable"></path></g><path d="M215.05,193.94c8.6,8.61,12.41,30.52,17.64,56.68a6.24,6.24,0,0,1-5,7.35l-32.55,6a6.25,6.25,0,0,1-7.42-6.24c.46-12.45-9.43-31-19.55-53a6.23,6.23,0,0,1,5-8.8L210,192.13A6.25,6.25,0,0,1,215.05,193.94Z" style="fill: rgb(38, 50, 56); transform-origin: 200.204px 228.09px;" id="eljq541yibxr" class="animable"></path><g id="elh97qz9dy7p9"><path d="M215.05,193.94c8.6,8.61,12.41,30.52,17.64,56.68a6.24,6.24,0,0,1-5,7.35l-32.55,6a6.25,6.25,0,0,1-7.42-6.24c.46-12.45-9.43-31-19.55-53a6.23,6.23,0,0,1,5-8.8L210,192.13A6.25,6.25,0,0,1,215.05,193.94Z" style="opacity: 0.2; transform-origin: 200.204px 228.09px;" class="animable"></path></g><g id="elhdd07vmrxhm"><path d="M208.34,261.53c-11.8,1.17-17.57-19.75-25.4-41.26l.62-.91c8.12,20.57,13.87,41.47,26.09,41.93Z" style="opacity: 0.2; transform-origin: 196.295px 240.468px;" class="animable"></path></g><g id="el2mhm4sdd51t"><path d="M185.05,243.13c12.55-5.19,20.6-7.55,30.35-23.48-5.9,16.88-12.51,25.36-28.67,29.78Z" style="opacity: 0.2; transform-origin: 200.225px 234.54px;" class="animable"></path></g><g id="elq6pyyu0damf"><path d="M155.66,325.19c7.29-4.51,53-19.08,53-19.08s-6.72-.69-6.94-1.39C183.1,312.39,160.78,321,155.66,325.19Z" style="opacity: 0.2; transform-origin: 182.16px 314.955px;" class="animable"></path></g><polygon points="195.62 262.58 191.08 299.4 243.43 319.33 231.86 254.55 195.62 262.58" style="fill: rgb(38, 50, 56); transform-origin: 217.255px 286.94px;" id="el2mwwomjqjl8" class="animable"></polygon><g id="ela927fxrbtmb"><path d="M207,266.93c-.71,10.46-1.95,19.85-4.22,26.75,1.64-1.43,2.34,1.16,4.34,1.18,1.89-2.89,1.75-12.67.87-25,5.13,10.76,11.1,22.05,7.59,27.32,3-.76,4.17-5.13,5.59-3.14,2-11.49-6-19.05-12.07-27.34Z" style="opacity: 0.2; transform-origin: 212.132px 281.94px;" class="animable"></path></g><g id="el9t84cejbdjm"><polygon points="194.93 268.24 233.56 264.05 231.86 254.55 195.62 262.58 194.93 268.24" style="opacity: 0.3; transform-origin: 214.245px 261.395px;" class="animable"></polygon></g><path d="M138.79,212.29l2.28-3a6.58,6.58,0,0,1,10.34-.23c23,27.67,39.89,23.88,50.09-9.47a2.8,2.8,0,0,1,4.64-1.17l5.21,5.11a16,16,0,0,1,1.74,20.8c-19.22,26.73-42,25.42-73.83-5.78A4.73,4.73,0,0,1,138.79,212.29Z" style="fill: rgb(38, 50, 56); transform-origin: 176.979px 220.43px;" id="el54fimbyv3b9" class="animable"></path><path d="M182.94,220.27s-3.65-11-1.47-16.94a11.49,11.49,0,0,0,.78-4.5c-.11-2.88-1.51-5.34-3.67-7.76l11.83-8.93a28.9,28.9,0,0,0,.35,4.45c1.11,6.68,4.44,6.77,4.44,6.77C198.23,198.52,182.94,220.27,182.94,220.27Z" style="fill: rgb(255, 195, 189); transform-origin: 187.089px 201.205px;" id="elztok383ym" class="animable"></path><g id="elb7gxoi5si6"><path d="M190.76,186.59c-1.08,4.76-3.49,11.34-8.51,12.24-.11-2.88-1.51-5.34-3.67-7.76l11.83-8.93A28.9,28.9,0,0,0,190.76,186.59Z" style="opacity: 0.2; transform-origin: 184.67px 190.485px;" class="animable"></path></g><path d="M172.64,158.49a12.52,12.52,0,0,1,17.24,4,12.32,12.32,0,0,1,1.84,5.48c.95,9.14,2,14.43-1.82,19.83-5.71,8.13-17.56,5.85-21.22-2.83C165.39,177.19,164.39,163.55,172.64,158.49Z" style="fill: rgb(255, 195, 189); transform-origin: 179.435px 174.715px;" id="el1n45ygejnqn" class="animable"></path><path d="M178.64,173c.17.72-.17,1.39-.65,1.47s-1-.44-1.09-1.18.17-1.4.65-1.48S178.52,172.27,178.64,173Z" style="fill: rgb(38, 50, 56); transform-origin: 177.783px 173.14px;" id="elyzhgrthqnic" class="animable"></path><path d="M170.32,174.39c.17.73-.18,1.4-.65,1.48s-1-.45-1.1-1.19.17-1.39.66-1.47S170.19,173.66,170.32,174.39Z" style="fill: rgb(38, 50, 56); transform-origin: 169.456px 174.54px;" id="el3sl1tyomjml" class="animable"></path><path d="M173,174.32a27.13,27.13,0,0,1-2.47,6.89c1.51,1,3.69-.13,3.69-.13Z" style="fill: rgb(222, 86, 82); transform-origin: 172.375px 177.972px;" id="elxp9io92klpc" class="animable"></path><path d="M181,169.19a.41.41,0,0,1-.45.07,3.51,3.51,0,0,0-3.17.11.44.44,0,1,1-.49-.73h0a4.35,4.35,0,0,1,4-.19.44.44,0,0,1,.23.58A.31.31,0,0,1,181,169.19Z" style="fill: rgb(38, 50, 56); transform-origin: 178.918px 168.754px;" id="el7b45yir4hwd" class="animable"></path><path d="M165.31,170.56a.46.46,0,0,1-.24-.12.44.44,0,0,1,.11-.61,4.35,4.35,0,0,1,4-.57.44.44,0,0,1-.34.81h0a3.47,3.47,0,0,0-3.13.5A.46.46,0,0,1,165.31,170.56Z" style="fill: rgb(38, 50, 56); transform-origin: 167.209px 169.81px;" id="eln5tx4n9unk" class="animable"></path><path d="M185.75,166.65l-19.13,1.5c.74-4,2.36-7.69,5.78-9.78a12.87,12.87,0,0,1,17.52,4.13,10.84,10.84,0,0,1,.77,1.47h0a12.28,12.28,0,0,1,.76,2.21h0a11.2,11.2,0,0,1,.21,1.13l8.76-6.74,1.65,3.6-10.29,4.13.06.57,10.23-1.58.17,1.62-10.34.52c0,.25.06.51.08.75.08.71.15,1.39.22,2.06l0,.1h0c.71,6.8.9,11.29-2.3,15.85-5.71,8.13-17.56,5.85-21.22-2.83a31.23,31.23,0,0,1-1.83-6.33l20.15-2Z" style="fill: rgb(38, 50, 56); transform-origin: 184.43px 174.871px;" id="el8c7jrc6v4w" class="animable"></path></g><defs>     <filter id="active" height="200%">         <feMorphology in="SourceAlpha" result="DILATED" operator="dilate" radius="2"></feMorphology>                <feFlood flood-color="#32DFEC" flood-opacity="1" result="PINK"></feFlood>        <feComposite in="PINK" in2="DILATED" operator="in" result="OUTLINE"></feComposite>        <feMerge>            <feMergeNode in="OUTLINE"></feMergeNode>            <feMergeNode in="SourceGraphic"></feMergeNode>        </feMerge>    </filter>    <filter id="hover" height="200%">        <feMorphology in="SourceAlpha" result="DILATED" operator="dilate" radius="2"></feMorphology>                <feFlood flood-color="#ff0000" flood-opacity="0.5" result="PINK"></feFlood>        <feComposite in="PINK" in2="DILATED" operator="in" result="OUTLINE"></feComposite>        <feMerge>            <feMergeNode in="OUTLINE"></feMergeNode>            <feMergeNode in="SourceGraphic"></feMergeNode>        </feMerge>            <feColorMatrix type="matrix" values="0   0   0   0   0                0   1   0   0   0                0   0   0   0   0                0   0   0   1   0 "></feColorMatrix>    </filter></defs></svg>